<?xml version="1.0" encoding="UTF-8" standalone="no"?>
<!DOCTYPE svg PUBLIC "-//W3C//DTD SVG 1.1//EN"
 "http://www.w3.org/Graphics/SVG/1.1/DTD/svg11.dtd">
<!-- Generated by graphviz version 2.47.3 (0)
 -->
<!-- Title: git&#45;history Pages: 1 -->
<svg width="230pt" height="242pt"
 viewBox="0.00 0.00 230.00 242.00" xmlns="http://www.w3.org/2000/svg" xmlns:xlink="http://www.w3.org/1999/xlink">
<g id="graph0" class="graph" transform="scale(1 1) rotate(0) translate(4 238)">
<title>git&#45;history</title>
<polygon fill="white" stroke="transparent" points="-4,4 -4,-238 226,-238 226,4 -4,4"/>
<g id="clust2" class="cluster">
<title>cluster_developer2</title>
</g>
<!-- remote -->
<g id="node1" class="node">
<title>remote</title>
<polygon fill="lightblue" stroke="black" points="146,-234 0,-234 0,-216 146,-216 146,-234"/>
<text text-anchor="middle" x="73" y="-222.8" font-family="Times,serif" font-size="9.00">remotes/MYSERVER/master</text>
</g>
<!-- c -->
<g id="node5" class="node">
<title>c</title>
<ellipse fill="none" stroke="black" cx="84" cy="-162" rx="27" ry="18"/>
<text text-anchor="middle" x="84" y="-158.3" font-family="Times,serif" font-size="14.00">c</text>
</g>
<!-- remote&#45;&gt;c -->
<g id="edge4" class="edge">
<title>remote&#45;&gt;c</title>
<path fill="none" stroke="black" d="M74.48,-215.77C75.68,-209.16 77.42,-199.47 79.1,-190.19"/>
<polygon fill="black" stroke="black" points="82.59,-190.54 80.92,-180.08 75.7,-189.3 82.59,-190.54"/>
</g>
<!-- master -->
<g id="node2" class="node">
<title>master</title>
<polygon fill="yellow" stroke="black" points="218,-234 164,-234 164,-216 218,-216 218,-234"/>
<text text-anchor="middle" x="191" y="-222.8" font-family="Times,serif" font-size="9.00">master</text>
</g>
<!-- d -->
<g id="node6" class="node">
<title>d</title>
<ellipse fill="none" stroke="black" cx="179" cy="-162" rx="27" ry="18"/>
<text text-anchor="middle" x="179" y="-158.3" font-family="Times,serif" font-size="14.00">d</text>
</g>
<!-- master&#45;&gt;d -->
<g id="edge5" class="edge">
<title>master&#45;&gt;d</title>
<path fill="none" stroke="black" d="M189.38,-215.77C188.07,-209.09 186.13,-199.26 184.29,-189.89"/>
<polygon fill="black" stroke="black" points="187.72,-189.21 182.36,-180.08 180.86,-190.57 187.72,-189.21"/>
</g>
<!-- a -->
<g id="node3" class="node">
<title>a</title>
<ellipse fill="none" stroke="black" cx="84" cy="-18" rx="27" ry="18"/>
<text text-anchor="middle" x="84" y="-14.3" font-family="Times,serif" font-size="14.00">a</text>
</g>
<!-- b -->
<g id="node4" class="node">
<title>b</title>
<ellipse fill="none" stroke="black" cx="84" cy="-90" rx="27" ry="18"/>
<text text-anchor="middle" x="84" y="-86.3" font-family="Times,serif" font-size="14.00">b</text>
</g>
<!-- b&#45;&gt;a -->
<g id="edge1" class="edge">
<title>b&#45;&gt;a</title>
<path fill="none" stroke="black" d="M84,-71.7C84,-63.98 84,-54.71 84,-46.11"/>
<polygon fill="black" stroke="black" points="87.5,-46.1 84,-36.1 80.5,-46.1 87.5,-46.1"/>
</g>
<!-- c&#45;&gt;b -->
<g id="edge2" class="edge">
<title>c&#45;&gt;b</title>
<path fill="none" stroke="black" d="M84,-143.7C84,-135.98 84,-126.71 84,-118.11"/>
<polygon fill="black" stroke="black" points="87.5,-118.1 84,-108.1 80.5,-118.1 87.5,-118.1"/>
</g>
<!-- d&#45;&gt;b -->
<g id="edge3" class="edge">
<title>d&#45;&gt;b</title>
<path fill="none" stroke="black" d="M161.58,-148.16C147.07,-137.47 126.21,-122.1 109.77,-109.99"/>
<polygon fill="black" stroke="black" points="111.76,-107.11 101.64,-103.99 107.61,-112.74 111.76,-107.11"/>
</g>
</g>
</svg>
