<?xml version="1.0" encoding="UTF-8" standalone="no"?>
<!DOCTYPE svg PUBLIC "-//W3C//DTD SVG 1.1//EN"
 "http://www.w3.org/Graphics/SVG/1.1/DTD/svg11.dtd">
<!-- Generated by graphviz version 2.47.3 (0)
 -->
<!-- Title: git&#45;storage Pages: 1 -->
<svg width="388pt" height="418pt"
 viewBox="0.00 0.00 388.23 417.69" xmlns="http://www.w3.org/2000/svg" xmlns:xlink="http://www.w3.org/1999/xlink">
<g id="graph0" class="graph" transform="scale(1 1) rotate(0) translate(4 413.69)">
<title>git&#45;storage</title>
<polygon fill="white" stroke="transparent" points="-4,4 -4,-413.69 384.23,-413.69 384.23,4 -4,4"/>
<!-- blob -->
<g id="node1" class="node">
<title>blob</title>
<ellipse fill="none" stroke="black" cx="179.23" cy="-18" rx="30.59" ry="18"/>
<text text-anchor="middle" x="179.23" y="-14.3" font-family="Times,serif" font-size="14.00">blob</text>
</g>
<!-- tree -->
<g id="node2" class="node">
<title>tree</title>
<ellipse fill="none" stroke="black" cx="179.23" cy="-120" rx="29.8" ry="18"/>
<text text-anchor="middle" x="179.23" y="-116.3" font-family="Times,serif" font-size="14.00">tree</text>
</g>
<!-- tree&#45;&gt;blob -->
<g id="edge1" class="edge">
<title>tree&#45;&gt;blob</title>
<path fill="none" stroke="black" d="M179.23,-101.58C179.23,-86.38 179.23,-64.07 179.23,-46.46"/>
<polygon fill="black" stroke="black" points="182.73,-46.22 179.23,-36.22 175.73,-46.22 182.73,-46.22"/>
<text text-anchor="start" x="179.23" y="-72.8" font-family="Times,serif" font-size="14.00">+filename</text>
<text text-anchor="start" x="179.23" y="-57.8" font-family="Times,serif" font-size="14.00">+mode</text>
</g>
<!-- tree&#45;&gt;tree -->
<g id="edge2" class="edge">
<title>tree&#45;&gt;tree</title>
<path fill="none" stroke="black" d="M207.27,-126.72C218.11,-127.02 227.12,-124.78 227.12,-120 227.12,-116.86 223.24,-114.82 217.51,-113.87"/>
<polygon fill="black" stroke="black" points="217.45,-110.36 207.27,-113.28 217.05,-117.35 217.45,-110.36"/>
<text text-anchor="start" x="227.12" y="-123.8" font-family="Times,serif" font-size="14.00">subdir</text>
<text text-anchor="middle" x="263.62" y="-108.8" font-family="Times,serif" font-size="14.00">+filename</text>
</g>
<!-- commit -->
<g id="node3" class="node">
<title>commit</title>
<ellipse fill="none" stroke="black" cx="179.23" cy="-201.87" rx="62.45" ry="26.74"/>
<text text-anchor="start" x="143.23" y="-205.67" font-family="Times,serif" font-size="14.00">commit</text>
<text text-anchor="start" x="143.23" y="-190.67" font-family="Times,serif" font-size="14.00">&#45; message</text>
</g>
<!-- commit&#45;&gt;tree -->
<g id="edge3" class="edge">
<title>commit&#45;&gt;tree</title>
<path fill="none" stroke="black" d="M179.23,-174.72C179.23,-166.27 179.23,-156.89 179.23,-148.36"/>
<polygon fill="black" stroke="black" points="182.73,-148.15 179.23,-138.15 175.73,-148.15 182.73,-148.15"/>
</g>
<!-- commit&#45;&gt;commit -->
<g id="edge4" class="edge">
<title>commit&#45;&gt;commit</title>
<path fill="none" stroke="black" d="M238.7,-209.81C250.79,-208.94 259.45,-206.3 259.45,-201.87 259.45,-198.83 255.36,-196.63 248.87,-195.27"/>
<polygon fill="black" stroke="black" points="249.07,-191.76 238.7,-193.93 248.16,-198.7 249.07,-191.76"/>
<text text-anchor="middle" x="286.95" y="-198.17" font-family="Times,serif" font-size="14.00">parents</text>
</g>
<!-- tag -->
<g id="node4" class="node">
<title>tag</title>
<ellipse fill="none" stroke="black" cx="62.23" cy="-303.22" rx="62.45" ry="37.45"/>
<text text-anchor="start" x="26.23" y="-314.52" font-family="Times,serif" font-size="14.00">tag</text>
<text text-anchor="start" x="26.23" y="-299.52" font-family="Times,serif" font-size="14.00">&#45; name</text>
<text text-anchor="start" x="26.23" y="-284.52" font-family="Times,serif" font-size="14.00">&#45; message</text>
</g>
<!-- tag&#45;&gt;commit -->
<g id="edge5" class="edge">
<title>tag&#45;&gt;commit</title>
<path fill="none" stroke="black" d="M97.65,-272.14C112.29,-259.71 129.23,-245.33 143.86,-232.9"/>
<polygon fill="black" stroke="black" points="146.37,-235.36 151.73,-226.22 141.84,-230.02 146.37,-235.36"/>
</g>
<!-- branchname -->
<g id="node5" class="node">
<title>branchname</title>
<polygon fill="yellow" stroke="black" points="216.23,-312.22 142.23,-312.22 142.23,-294.22 216.23,-294.22 216.23,-312.22"/>
<text text-anchor="middle" x="179.23" y="-301.02" font-family="Times,serif" font-size="9.00">branchname</text>
</g>
<!-- branchname&#45;&gt;commit -->
<g id="edge6" class="edge">
<title>branchname&#45;&gt;commit</title>
<path fill="none" stroke="black" d="M179.23,-294.09C179.23,-282.09 179.23,-258.91 179.23,-238.91"/>
<polygon fill="black" stroke="black" points="182.73,-238.83 179.23,-228.83 175.73,-238.83 182.73,-238.83"/>
</g>
<!-- HEAD -->
<g id="node6" class="node">
<title>HEAD</title>
<polygon fill="yellow" stroke="black" points="206.23,-409.69 152.23,-409.69 152.23,-391.69 206.23,-391.69 206.23,-409.69"/>
<text text-anchor="middle" x="179.23" y="-398.49" font-family="Times,serif" font-size="9.00">HEAD</text>
</g>
<!-- HEAD&#45;&gt;branchname -->
<g id="edge7" class="edge">
<title>HEAD&#45;&gt;branchname</title>
<path fill="none" stroke="black" stroke-dasharray="1,5" d="M179.23,-391.55C179.23,-376.33 179.23,-343.23 179.23,-322.43"/>
<polygon fill="black" stroke="black" points="182.73,-322.34 179.23,-312.34 175.73,-322.34 182.73,-322.34"/>
<text text-anchor="middle" x="191.73" y="-362.49" font-family="Times,serif" font-size="14.00">ref:</text>
</g>
<!-- remote -->
<g id="node7" class="node">
<title>remote</title>
<polygon fill="lightblue" stroke="black" points="380.23,-312.22 234.23,-312.22 234.23,-294.22 380.23,-294.22 380.23,-312.22"/>
<text text-anchor="middle" x="307.23" y="-301.02" font-family="Times,serif" font-size="9.00">remotes/MYSERVER/master</text>
</g>
<!-- remote&#45;&gt;commit -->
<g id="edge8" class="edge">
<title>remote&#45;&gt;commit</title>
<path fill="none" stroke="black" d="M296.75,-294.09C279.49,-280.69 244.25,-253.34 216.84,-232.07"/>
<polygon fill="black" stroke="black" points="218.66,-229.05 208.62,-225.68 214.37,-234.58 218.66,-229.05"/>
</g>
<!-- tagname -->
<g id="node8" class="node">
<title>tagname</title>
<polygon fill="darkorange" stroke="black" points="90.23,-409.69 34.23,-409.69 34.23,-391.69 90.23,-391.69 90.23,-409.69"/>
<text text-anchor="middle" x="62.23" y="-398.49" font-family="Times,serif" font-size="9.00">tagname</text>
</g>
<!-- tagname&#45;&gt;tag -->
<g id="edge9" class="edge">
<title>tagname&#45;&gt;tag</title>
<path fill="none" stroke="black" d="M62.23,-391.55C62.23,-382.38 62.23,-366.71 62.23,-351.15"/>
<polygon fill="black" stroke="black" points="65.73,-351.01 62.23,-341.01 58.73,-351.01 65.73,-351.01"/>
</g>
</g>
</svg>
