<?xml version="1.0" encoding="UTF-8" standalone="no"?>
<!DOCTYPE svg PUBLIC "-//W3C//DTD SVG 1.1//EN"
 "http://www.w3.org/Graphics/SVG/1.1/DTD/svg11.dtd">
<!-- Generated by graphviz version 2.47.3 (0)
 -->
<!-- Title: git&#45;history Pages: 1 -->
<svg width="180pt" height="170pt"
 viewBox="0.00 0.00 180.00 170.00" xmlns="http://www.w3.org/2000/svg" xmlns:xlink="http://www.w3.org/1999/xlink">
<g id="graph0" class="graph" transform="scale(1 1) rotate(0) translate(4 166)">
<title>git&#45;history</title>
<polygon fill="white" stroke="transparent" points="-4,4 -4,-166 176,-166 176,4 -4,4"/>
<!-- remote -->
<g id="node1" class="node">
<title>remote</title>
<polygon fill="lightblue" stroke="black" points="146,-162 0,-162 0,-144 146,-144 146,-162"/>
<text text-anchor="middle" x="73" y="-150.8" font-family="Times,serif" font-size="9.00">remotes/MYSERVER/master</text>
</g>
<!-- b -->
<g id="node4" class="node">
<title>b</title>
<ellipse fill="none" stroke="black" cx="73" cy="-90" rx="27" ry="18"/>
<text text-anchor="middle" x="73" y="-86.3" font-family="Times,serif" font-size="14.00">b</text>
</g>
<!-- remote&#45;&gt;b -->
<g id="edge2" class="edge">
<title>remote&#45;&gt;b</title>
<path fill="none" stroke="black" d="M73,-143.77C73,-137.16 73,-127.47 73,-118.19"/>
<polygon fill="black" stroke="black" points="76.5,-118.08 73,-108.08 69.5,-118.08 76.5,-118.08"/>
</g>
<!-- master -->
<g id="node2" class="node">
<title>master</title>
<polygon fill="yellow" stroke="black" points="172,-99 118,-99 118,-81 172,-81 172,-99"/>
<text text-anchor="middle" x="145" y="-87.8" font-family="Times,serif" font-size="9.00">master</text>
</g>
<!-- a -->
<g id="node3" class="node">
<title>a</title>
<ellipse fill="none" stroke="black" cx="73" cy="-18" rx="27" ry="18"/>
<text text-anchor="middle" x="73" y="-14.3" font-family="Times,serif" font-size="14.00">a</text>
</g>
<!-- master&#45;&gt;a -->
<g id="edge3" class="edge">
<title>master&#45;&gt;a</title>
<path fill="none" stroke="black" d="M136.74,-80.97C126.64,-71.15 109.16,-54.15 95.05,-40.44"/>
<polygon fill="black" stroke="black" points="97.24,-37.68 87.63,-33.22 92.36,-42.7 97.24,-37.68"/>
</g>
<!-- b&#45;&gt;a -->
<g id="edge1" class="edge">
<title>b&#45;&gt;a</title>
<path fill="none" stroke="black" d="M73,-71.7C73,-63.98 73,-54.71 73,-46.11"/>
<polygon fill="black" stroke="black" points="76.5,-46.1 73,-36.1 69.5,-46.1 76.5,-46.1"/>
</g>
</g>
</svg>
