<?xml version="1.0" encoding="UTF-8" standalone="no"?>
<!DOCTYPE svg PUBLIC "-//W3C//DTD SVG 1.1//EN"
 "http://www.w3.org/Graphics/SVG/1.1/DTD/svg11.dtd">
<!-- Generated by graphviz version 2.47.3 (0)
 -->
<!-- Title: git&#45;storage Pages: 1 -->
<svg width="159pt" height="146pt"
 viewBox="0.00 0.00 159.44 146.00" xmlns="http://www.w3.org/2000/svg" xmlns:xlink="http://www.w3.org/1999/xlink">
<g id="graph0" class="graph" transform="scale(1 1) rotate(0) translate(4 142)">
<title>git&#45;storage</title>
<polygon fill="white" stroke="transparent" points="-4,4 -4,-142 155.44,-142 155.44,4 -4,4"/>
<!-- blob -->
<g id="node1" class="node">
<title>blob</title>
<ellipse fill="none" stroke="black" cx="30.55" cy="-18" rx="30.59" ry="18"/>
<text text-anchor="middle" x="30.55" y="-14.3" font-family="Times,serif" font-size="14.00">blob</text>
</g>
<!-- tree -->
<g id="node2" class="node">
<title>tree</title>
<ellipse fill="none" stroke="black" cx="30.55" cy="-120" rx="29.8" ry="18"/>
<text text-anchor="middle" x="30.55" y="-116.3" font-family="Times,serif" font-size="14.00">tree</text>
</g>
<!-- tree&#45;&gt;blob -->
<g id="edge1" class="edge">
<title>tree&#45;&gt;blob</title>
<path fill="none" stroke="black" d="M30.55,-101.58C30.55,-86.38 30.55,-64.07 30.55,-46.46"/>
<polygon fill="black" stroke="black" points="34.05,-46.22 30.55,-36.22 27.05,-46.22 34.05,-46.22"/>
<text text-anchor="start" x="30.55" y="-72.8" font-family="Times,serif" font-size="14.00">+filename</text>
<text text-anchor="start" x="30.55" y="-57.8" font-family="Times,serif" font-size="14.00">+mode</text>
</g>
<!-- tree&#45;&gt;tree -->
<g id="edge2" class="edge">
<title>tree&#45;&gt;tree</title>
<path fill="none" stroke="black" d="M56.66,-129.23C68.34,-130.11 78.44,-127.03 78.44,-120 78.44,-115.17 73.67,-112.2 66.89,-111.11"/>
<polygon fill="black" stroke="black" points="66.77,-107.6 56.66,-110.77 66.54,-114.6 66.77,-107.6"/>
<text text-anchor="start" x="78.44" y="-123.8" font-family="Times,serif" font-size="14.00">subdir</text>
<text text-anchor="middle" x="114.94" y="-108.8" font-family="Times,serif" font-size="14.00">+filename</text>
</g>
</g>
</svg>
