<?xml version="1.0" encoding="UTF-8" standalone="no"?>
<!DOCTYPE svg PUBLIC "-//W3C//DTD SVG 1.1//EN"
 "http://www.w3.org/Graphics/SVG/1.1/DTD/svg11.dtd">
<!-- Generated by graphviz version 2.47.3 (0)
 -->
<!-- Title: git&#45;history Pages: 1 -->
<svg width="314pt" height="565pt"
 viewBox="0.00 0.00 314.00 565.00" xmlns="http://www.w3.org/2000/svg" xmlns:xlink="http://www.w3.org/1999/xlink">
<g id="graph0" class="graph" transform="scale(1 1) rotate(0) translate(4 561)">
<title>git&#45;history</title>
<polygon fill="white" stroke="transparent" points="-4,4 -4,-561 310,-561 310,4 -4,4"/>
<g id="clust2" class="cluster">
<title>cluster_developer2</title>
</g>
<!-- remote -->
<g id="node1" class="node">
<title>remote</title>
<polygon fill="lightblue" stroke="black" points="146,-406 0,-406 0,-388 146,-388 146,-406"/>
<text text-anchor="middle" x="73" y="-394.8" font-family="Times,serif" font-size="9.00">remotes/MYSERVER/master</text>
</g>
<!-- g -->
<g id="node8" class="node">
<title>g</title>
<ellipse fill="none" stroke="black" cx="85" cy="-310" rx="27" ry="18"/>
<text text-anchor="middle" x="85" y="-306.3" font-family="Times,serif" font-size="14.00">g</text>
</g>
<!-- remote&#45;&gt;g -->
<g id="edge11" class="edge">
<title>remote&#45;&gt;g</title>
<path fill="none" stroke="black" d="M74.15,-387.85C75.75,-376.49 78.74,-355.37 81.17,-338.13"/>
<polygon fill="black" stroke="black" points="84.66,-338.42 82.6,-328.03 77.73,-337.44 84.66,-338.42"/>
</g>
<!-- master -->
<g id="node2" class="node">
<title>master</title>
<polygon fill="yellow" stroke="black" points="218,-557 164,-557 164,-539 218,-539 218,-557"/>
<text text-anchor="middle" x="191" y="-545.8" font-family="Times,serif" font-size="9.00">master</text>
</g>
<!-- h2 -->
<g id="node10" class="node">
<title>h2</title>
<ellipse fill="none" stroke="black" cx="191" cy="-484" rx="27" ry="18"/>
<text text-anchor="middle" x="191" y="-480.3" font-family="Times,serif" font-size="14.00">h2</text>
</g>
<!-- master&#45;&gt;h2 -->
<g id="edge12" class="edge">
<title>master&#45;&gt;h2</title>
<path fill="none" stroke="black" d="M191,-538.89C191,-532.1 191,-521.98 191,-512.34"/>
<polygon fill="black" stroke="black" points="194.5,-512.25 191,-502.25 187.5,-512.25 194.5,-512.25"/>
</g>
<!-- a -->
<g id="node3" class="node">
<title>a</title>
<ellipse fill="none" stroke="black" cx="85" cy="-18" rx="27" ry="18"/>
<text text-anchor="middle" x="85" y="-14.3" font-family="Times,serif" font-size="14.00">a</text>
</g>
<!-- b -->
<g id="node4" class="node">
<title>b</title>
<ellipse fill="none" stroke="black" cx="85" cy="-91" rx="27" ry="18"/>
<text text-anchor="middle" x="85" y="-87.3" font-family="Times,serif" font-size="14.00">b</text>
</g>
<!-- b&#45;&gt;a -->
<g id="edge1" class="edge">
<title>b&#45;&gt;a</title>
<path fill="none" stroke="black" d="M85,-72.81C85,-64.79 85,-55.05 85,-46.07"/>
<polygon fill="black" stroke="black" points="88.5,-46.03 85,-36.03 81.5,-46.03 88.5,-46.03"/>
</g>
<!-- c -->
<g id="node5" class="node">
<title>c</title>
<ellipse fill="none" stroke="black" cx="85" cy="-164" rx="27" ry="18"/>
<text text-anchor="middle" x="85" y="-160.3" font-family="Times,serif" font-size="14.00">c</text>
</g>
<!-- c&#45;&gt;b -->
<g id="edge2" class="edge">
<title>c&#45;&gt;b</title>
<path fill="none" stroke="black" d="M85,-145.81C85,-137.79 85,-128.05 85,-119.07"/>
<polygon fill="black" stroke="black" points="88.5,-119.03 85,-109.03 81.5,-119.03 88.5,-119.03"/>
</g>
<!-- d2 -->
<g id="node6" class="node">
<title>d2</title>
<ellipse fill="none" stroke="gray" stroke-dasharray="1,5" cx="263" cy="-310" rx="27" ry="18"/>
<text text-anchor="middle" x="263" y="-306.3" font-family="Times,serif" font-size="14.00">d2</text>
</g>
<!-- d2&#45;&gt;c -->
<g id="edge3" class="edge">
<title>d2&#45;&gt;c</title>
<path fill="none" stroke="black" d="M246.57,-295.71C215.13,-270.27 146.28,-214.58 109.43,-184.76"/>
<polygon fill="black" stroke="black" points="111.62,-182.03 101.65,-178.47 107.22,-187.48 111.62,-182.03"/>
</g>
<!-- h -->
<g id="node7" class="node">
<title>h</title>
<ellipse fill="none" stroke="gray" stroke-dasharray="1,5" cx="263" cy="-397" rx="27" ry="18"/>
<text text-anchor="middle" x="263" y="-393.3" font-family="Times,serif" font-size="14.00">h</text>
</g>
<!-- h&#45;&gt;d2 -->
<g id="edge4" class="edge">
<title>h&#45;&gt;d2</title>
<path fill="none" stroke="black" d="M263,-378.8C263,-367.16 263,-351.55 263,-338.24"/>
<polygon fill="black" stroke="black" points="266.5,-338.18 263,-328.18 259.5,-338.18 266.5,-338.18"/>
</g>
<!-- f -->
<g id="node9" class="node">
<title>f</title>
<ellipse fill="none" stroke="black" cx="85" cy="-237" rx="27" ry="18"/>
<text text-anchor="middle" x="85" y="-233.3" font-family="Times,serif" font-size="14.00">f</text>
</g>
<!-- g&#45;&gt;f -->
<g id="edge5" class="edge">
<title>g&#45;&gt;f</title>
<path fill="none" stroke="black" d="M85,-291.81C85,-283.79 85,-274.05 85,-265.07"/>
<polygon fill="black" stroke="black" points="88.5,-265.03 85,-255.03 81.5,-265.03 88.5,-265.03"/>
</g>
<!-- f&#45;&gt;c -->
<g id="edge6" class="edge">
<title>f&#45;&gt;c</title>
<path fill="none" stroke="black" d="M85,-218.81C85,-210.79 85,-201.05 85,-192.07"/>
<polygon fill="black" stroke="black" points="88.5,-192.03 85,-182.03 81.5,-192.03 88.5,-192.03"/>
</g>
<!-- h2&#45;&gt;h -->
<g id="edge10" class="edge">
<title>h2&#45;&gt;h</title>
<path fill="none" stroke="blue" d="M210.48,-460C223.11,-445.09 239.22,-426.08 250.24,-413.06"/>
<polygon fill="blue" stroke="blue" points="207.66,-457.91 203.87,-467.8 213.01,-462.44 207.66,-457.91"/>
<text text-anchor="middle" x="255.5" y="-436.8" font-family="Times,serif" font-size="14.00">rebase</text>
</g>
<!-- d3 -->
<g id="node11" class="node">
<title>d3</title>
<ellipse fill="none" stroke="black" cx="191" cy="-397" rx="27" ry="18"/>
<text text-anchor="middle" x="191" y="-393.3" font-family="Times,serif" font-size="14.00">d3</text>
</g>
<!-- h2&#45;&gt;d3 -->
<g id="edge7" class="edge">
<title>h2&#45;&gt;d3</title>
<path fill="none" stroke="black" d="M191,-465.8C191,-454.16 191,-438.55 191,-425.24"/>
<polygon fill="black" stroke="black" points="194.5,-425.18 191,-415.18 187.5,-425.18 194.5,-425.18"/>
</g>
<!-- d3&#45;&gt;d2 -->
<g id="edge9" class="edge">
<title>d3&#45;&gt;d2</title>
<path fill="none" stroke="blue" d="M197.75,-369.15C200.63,-361.15 204.61,-352.73 210,-346 218.41,-335.5 230.84,-327.06 241.55,-321.1"/>
<polygon fill="blue" stroke="blue" points="194.35,-368.32 194.66,-378.91 201.02,-370.43 194.35,-368.32"/>
<text text-anchor="middle" x="234.5" y="-349.8" font-family="Times,serif" font-size="14.00">rebase</text>
</g>
<!-- d3&#45;&gt;g -->
<g id="edge8" class="edge">
<title>d3&#45;&gt;g</title>
<path fill="none" stroke="black" d="M174.44,-382.72C157.11,-368.83 129.73,-346.87 109.82,-330.9"/>
<polygon fill="black" stroke="black" points="111.79,-327.99 101.8,-324.47 107.41,-333.45 111.79,-327.99"/>
</g>
</g>
</svg>
