<?xml version="1.0" encoding="UTF-8" standalone="no"?>
<!DOCTYPE svg PUBLIC "-//W3C//DTD SVG 1.1//EN"
 "http://www.w3.org/Graphics/SVG/1.1/DTD/svg11.dtd">
<!-- Generated by graphviz version 2.47.3 (0)
 -->
<!-- Title: git&#45;history Pages: 1 -->
<svg width="268pt" height="242pt"
 viewBox="0.00 0.00 268.00 242.00" xmlns="http://www.w3.org/2000/svg" xmlns:xlink="http://www.w3.org/1999/xlink">
<g id="graph0" class="graph" transform="scale(1 1) rotate(0) translate(4 238)">
<title>git&#45;history</title>
<polygon fill="white" stroke="transparent" points="-4,4 -4,-238 264,-238 264,4 -4,4"/>
<g id="clust2" class="cluster">
<title>cluster_developer2</title>
</g>
<!-- remote -->
<g id="node1" class="node">
<title>remote</title>
<polygon fill="lightblue" stroke="black" points="146,-234 0,-234 0,-216 146,-216 146,-234"/>
<text text-anchor="middle" x="73" y="-222.8" font-family="Times,serif" font-size="9.00">remotes/MYSERVER/master</text>
</g>
<!-- c -->
<g id="node5" class="node">
<title>c</title>
<ellipse fill="none" stroke="black" cx="73" cy="-162" rx="27" ry="18"/>
<text text-anchor="middle" x="73" y="-158.3" font-family="Times,serif" font-size="14.00">c</text>
</g>
<!-- remote&#45;&gt;c -->
<g id="edge6" class="edge">
<title>remote&#45;&gt;c</title>
<path fill="none" stroke="black" d="M73,-215.77C73,-209.16 73,-199.47 73,-190.19"/>
<polygon fill="black" stroke="black" points="76.5,-190.08 73,-180.08 69.5,-190.08 76.5,-190.08"/>
</g>
<!-- master -->
<g id="node2" class="node">
<title>master</title>
<polygon fill="yellow" stroke="black" points="244,-234 190,-234 190,-216 244,-216 244,-234"/>
<text text-anchor="middle" x="217" y="-222.8" font-family="Times,serif" font-size="9.00">master</text>
</g>
<!-- h -->
<g id="node8" class="node">
<title>h</title>
<ellipse fill="none" stroke="black" cx="217" cy="-162" rx="27" ry="18"/>
<text text-anchor="middle" x="217" y="-158.3" font-family="Times,serif" font-size="14.00">h</text>
</g>
<!-- master&#45;&gt;h -->
<g id="edge7" class="edge">
<title>master&#45;&gt;h</title>
<path fill="none" stroke="black" d="M217,-215.77C217,-209.16 217,-199.47 217,-190.19"/>
<polygon fill="black" stroke="black" points="220.5,-190.08 217,-180.08 213.5,-190.08 220.5,-190.08"/>
</g>
<!-- a -->
<g id="node3" class="node">
<title>a</title>
<ellipse fill="none" stroke="black" cx="73" cy="-18" rx="27" ry="18"/>
<text text-anchor="middle" x="73" y="-14.3" font-family="Times,serif" font-size="14.00">a</text>
</g>
<!-- b -->
<g id="node4" class="node">
<title>b</title>
<ellipse fill="none" stroke="black" cx="73" cy="-90" rx="27" ry="18"/>
<text text-anchor="middle" x="73" y="-86.3" font-family="Times,serif" font-size="14.00">b</text>
</g>
<!-- b&#45;&gt;a -->
<g id="edge1" class="edge">
<title>b&#45;&gt;a</title>
<path fill="none" stroke="black" d="M73,-71.7C73,-63.98 73,-54.71 73,-46.11"/>
<polygon fill="black" stroke="black" points="76.5,-46.1 73,-36.1 69.5,-46.1 76.5,-46.1"/>
</g>
<!-- c&#45;&gt;b -->
<g id="edge2" class="edge">
<title>c&#45;&gt;b</title>
<path fill="none" stroke="black" d="M73,-143.7C73,-135.98 73,-126.71 73,-118.11"/>
<polygon fill="black" stroke="black" points="76.5,-118.1 73,-108.1 69.5,-118.1 76.5,-118.1"/>
</g>
<!-- d -->
<g id="node6" class="node">
<title>d</title>
<ellipse fill="none" stroke="black" cx="145" cy="-162" rx="27" ry="18"/>
<text text-anchor="middle" x="145" y="-158.3" font-family="Times,serif" font-size="14.00">d</text>
</g>
<!-- d&#45;&gt;b -->
<g id="edge3" class="edge">
<title>d&#45;&gt;b</title>
<path fill="none" stroke="black" d="M130.43,-146.83C120.25,-136.94 106.48,-123.55 94.97,-112.36"/>
<polygon fill="black" stroke="black" points="97.41,-109.85 87.8,-105.38 92.53,-114.87 97.41,-109.85"/>
</g>
<!-- d2 -->
<g id="node7" class="node">
<title>d2</title>
<ellipse fill="none" stroke="black" cx="217" cy="-90" rx="27" ry="18"/>
<text text-anchor="middle" x="217" y="-86.3" font-family="Times,serif" font-size="14.00">d2</text>
</g>
<!-- d2&#45;&gt;c -->
<g id="edge4" class="edge">
<title>d2&#45;&gt;c</title>
<path fill="none" stroke="black" d="M195.21,-101.17C172.76,-111.7 136.8,-128.72 106,-144 104.86,-144.56 103.71,-145.14 102.54,-145.73"/>
<polygon fill="black" stroke="black" points="100.88,-142.65 93.55,-150.29 104.05,-148.89 100.88,-142.65"/>
</g>
<!-- h&#45;&gt;d2 -->
<g id="edge5" class="edge">
<title>h&#45;&gt;d2</title>
<path fill="none" stroke="black" d="M217,-143.7C217,-135.98 217,-126.71 217,-118.11"/>
<polygon fill="black" stroke="black" points="220.5,-118.1 217,-108.1 213.5,-118.1 220.5,-118.1"/>
</g>
</g>
</svg>
