<?xml version="1.0" encoding="UTF-8" standalone="no"?>
<!DOCTYPE svg PUBLIC "-//W3C//DTD SVG 1.1//EN"
 "http://www.w3.org/Graphics/SVG/1.1/DTD/svg11.dtd">
<!-- Generated by graphviz version 2.47.3 (0)
 -->
<!-- Title: git&#45;history Pages: 1 -->
<svg width="242pt" height="314pt"
 viewBox="0.00 0.00 242.00 314.00" xmlns="http://www.w3.org/2000/svg" xmlns:xlink="http://www.w3.org/1999/xlink">
<g id="graph0" class="graph" transform="scale(1 1) rotate(0) translate(4 310)">
<title>git&#45;history</title>
<polygon fill="white" stroke="transparent" points="-4,4 -4,-310 238,-310 238,4 -4,4"/>
<g id="clust2" class="cluster">
<title>cluster_developer2</title>
</g>
<!-- remote -->
<g id="node1" class="node">
<title>remote</title>
<polygon fill="lightblue" stroke="black" points="146,-243 0,-243 0,-225 146,-225 146,-243"/>
<text text-anchor="middle" x="73" y="-231.8" font-family="Times,serif" font-size="9.00">remotes/MYSERVER/master</text>
</g>
<!-- c -->
<g id="node5" class="node">
<title>c</title>
<ellipse fill="none" stroke="black" cx="119" cy="-162" rx="27" ry="18"/>
<text text-anchor="middle" x="119" y="-158.3" font-family="Times,serif" font-size="14.00">c</text>
</g>
<!-- remote&#45;&gt;c -->
<g id="edge6" class="edge">
<title>remote&#45;&gt;c</title>
<path fill="none" stroke="black" d="M78.28,-224.97C84.26,-215.87 94.3,-200.59 102.91,-187.48"/>
<polygon fill="black" stroke="black" points="106.02,-189.13 108.58,-178.85 100.17,-185.29 106.02,-189.13"/>
</g>
<!-- master -->
<g id="node2" class="node">
<title>master</title>
<polygon fill="yellow" stroke="black" points="218,-306 164,-306 164,-288 218,-288 218,-306"/>
<text text-anchor="middle" x="191" y="-294.8" font-family="Times,serif" font-size="9.00">master</text>
</g>
<!-- e -->
<g id="node7" class="node">
<title>e</title>
<ellipse fill="none" stroke="black" cx="191" cy="-234" rx="27" ry="18"/>
<text text-anchor="middle" x="191" y="-230.3" font-family="Times,serif" font-size="14.00">e</text>
</g>
<!-- master&#45;&gt;e -->
<g id="edge7" class="edge">
<title>master&#45;&gt;e</title>
<path fill="none" stroke="black" d="M191,-287.77C191,-281.16 191,-271.47 191,-262.19"/>
<polygon fill="black" stroke="black" points="194.5,-262.08 191,-252.08 187.5,-262.08 194.5,-262.08"/>
</g>
<!-- a -->
<g id="node3" class="node">
<title>a</title>
<ellipse fill="none" stroke="black" cx="119" cy="-18" rx="27" ry="18"/>
<text text-anchor="middle" x="119" y="-14.3" font-family="Times,serif" font-size="14.00">a</text>
</g>
<!-- b -->
<g id="node4" class="node">
<title>b</title>
<ellipse fill="none" stroke="black" cx="119" cy="-90" rx="27" ry="18"/>
<text text-anchor="middle" x="119" y="-86.3" font-family="Times,serif" font-size="14.00">b</text>
</g>
<!-- b&#45;&gt;a -->
<g id="edge1" class="edge">
<title>b&#45;&gt;a</title>
<path fill="none" stroke="black" d="M119,-71.7C119,-63.98 119,-54.71 119,-46.11"/>
<polygon fill="black" stroke="black" points="122.5,-46.1 119,-36.1 115.5,-46.1 122.5,-46.1"/>
</g>
<!-- c&#45;&gt;b -->
<g id="edge2" class="edge">
<title>c&#45;&gt;b</title>
<path fill="none" stroke="black" d="M119,-143.7C119,-135.98 119,-126.71 119,-118.11"/>
<polygon fill="black" stroke="black" points="122.5,-118.1 119,-108.1 115.5,-118.1 122.5,-118.1"/>
</g>
<!-- d -->
<g id="node6" class="node">
<title>d</title>
<ellipse fill="none" stroke="black" cx="191" cy="-162" rx="27" ry="18"/>
<text text-anchor="middle" x="191" y="-158.3" font-family="Times,serif" font-size="14.00">d</text>
</g>
<!-- d&#45;&gt;b -->
<g id="edge3" class="edge">
<title>d&#45;&gt;b</title>
<path fill="none" stroke="black" d="M176.43,-146.83C166.25,-136.94 152.48,-123.55 140.97,-112.36"/>
<polygon fill="black" stroke="black" points="143.41,-109.85 133.8,-105.38 138.53,-114.87 143.41,-109.85"/>
</g>
<!-- e&#45;&gt;c -->
<g id="edge4" class="edge">
<title>e&#45;&gt;c</title>
<path fill="none" stroke="black" d="M176.43,-218.83C166.25,-208.94 152.48,-195.55 140.97,-184.36"/>
<polygon fill="black" stroke="black" points="143.41,-181.85 133.8,-177.38 138.53,-186.87 143.41,-181.85"/>
</g>
<!-- e&#45;&gt;d -->
<g id="edge5" class="edge">
<title>e&#45;&gt;d</title>
<path fill="none" stroke="black" d="M191,-215.7C191,-207.98 191,-198.71 191,-190.11"/>
<polygon fill="black" stroke="black" points="194.5,-190.1 191,-180.1 187.5,-190.1 194.5,-190.1"/>
</g>
</g>
</svg>
