<?xml version="1.0" encoding="UTF-8" standalone="no"?>
<!DOCTYPE svg PUBLIC "-//W3C//DTD SVG 1.1//EN"
 "http://www.w3.org/Graphics/SVG/1.1/DTD/svg11.dtd">
<!-- Generated by graphviz version 2.47.3 (0)
 -->
<!-- Title: git&#45;storage Pages: 1 -->
<svg width="276pt" height="361pt"
 viewBox="0.00 0.00 276.23 360.74" xmlns="http://www.w3.org/2000/svg" xmlns:xlink="http://www.w3.org/1999/xlink">
<g id="graph0" class="graph" transform="scale(1 1) rotate(0) translate(4 356.74)">
<title>git&#45;storage</title>
<polygon fill="white" stroke="transparent" points="-4,4 -4,-356.74 272.23,-356.74 272.23,4 -4,4"/>
<!-- blob -->
<g id="node1" class="node">
<title>blob</title>
<ellipse fill="none" stroke="black" cx="133" cy="-18" rx="30.59" ry="18"/>
<text text-anchor="middle" x="133" y="-14.3" font-family="Times,serif" font-size="14.00">blob</text>
</g>
<!-- tree -->
<g id="node2" class="node">
<title>tree</title>
<ellipse fill="none" stroke="black" cx="133" cy="-120" rx="29.8" ry="18"/>
<text text-anchor="middle" x="133" y="-116.3" font-family="Times,serif" font-size="14.00">tree</text>
</g>
<!-- tree&#45;&gt;blob -->
<g id="edge1" class="edge">
<title>tree&#45;&gt;blob</title>
<path fill="none" stroke="black" d="M133,-101.58C133,-86.38 133,-64.07 133,-46.46"/>
<polygon fill="black" stroke="black" points="136.5,-46.22 133,-36.22 129.5,-46.22 136.5,-46.22"/>
<text text-anchor="start" x="133" y="-72.8" font-family="Times,serif" font-size="14.00">+filename</text>
<text text-anchor="start" x="133" y="-57.8" font-family="Times,serif" font-size="14.00">+mode</text>
</g>
<!-- tree&#45;&gt;tree -->
<g id="edge2" class="edge">
<title>tree&#45;&gt;tree</title>
<path fill="none" stroke="black" d="M161.04,-126.72C171.89,-127.02 180.9,-124.78 180.9,-120 180.9,-116.86 177.02,-114.82 171.28,-113.87"/>
<polygon fill="black" stroke="black" points="171.23,-110.36 161.04,-113.28 170.82,-117.35 171.23,-110.36"/>
<text text-anchor="start" x="180.9" y="-123.8" font-family="Times,serif" font-size="14.00">subdir</text>
<text text-anchor="middle" x="217.4" y="-108.8" font-family="Times,serif" font-size="14.00">+filename</text>
</g>
<!-- commit -->
<g id="node3" class="node">
<title>commit</title>
<ellipse fill="none" stroke="black" cx="133" cy="-201.87" rx="62.45" ry="26.74"/>
<text text-anchor="start" x="97" y="-205.67" font-family="Times,serif" font-size="14.00">commit</text>
<text text-anchor="start" x="97" y="-190.67" font-family="Times,serif" font-size="14.00">&#45; message</text>
</g>
<!-- commit&#45;&gt;tree -->
<g id="edge3" class="edge">
<title>commit&#45;&gt;tree</title>
<path fill="none" stroke="black" d="M133,-174.72C133,-166.27 133,-156.89 133,-148.36"/>
<polygon fill="black" stroke="black" points="136.5,-148.15 133,-138.15 129.5,-148.15 136.5,-148.15"/>
</g>
<!-- commit&#45;&gt;commit -->
<g id="edge4" class="edge">
<title>commit&#45;&gt;commit</title>
<path fill="none" stroke="black" d="M192.48,-209.81C204.57,-208.94 213.23,-206.3 213.23,-201.87 213.23,-198.83 209.13,-196.63 202.65,-195.27"/>
<polygon fill="black" stroke="black" points="202.85,-191.76 192.48,-193.93 201.94,-198.7 202.85,-191.76"/>
<text text-anchor="middle" x="240.73" y="-198.17" font-family="Times,serif" font-size="14.00">parents</text>
</g>
<!-- branchname -->
<g id="node4" class="node">
<title>branchname</title>
<polygon fill="yellow" stroke="black" points="74,-283.74 0,-283.74 0,-265.74 74,-265.74 74,-283.74"/>
<text text-anchor="middle" x="37" y="-272.54" font-family="Times,serif" font-size="9.00">branchname</text>
</g>
<!-- branchname&#45;&gt;commit -->
<g id="edge5" class="edge">
<title>branchname&#45;&gt;commit</title>
<path fill="none" stroke="black" d="M48.01,-265.61C59.36,-257.24 77.69,-243.7 94.43,-231.34"/>
<polygon fill="black" stroke="black" points="96.52,-234.15 102.48,-225.4 92.36,-228.52 96.52,-234.15"/>
</g>
<!-- HEAD -->
<g id="node5" class="node">
<title>HEAD</title>
<polygon fill="yellow" stroke="black" points="64,-352.74 10,-352.74 10,-334.74 64,-334.74 64,-352.74"/>
<text text-anchor="middle" x="37" y="-341.54" font-family="Times,serif" font-size="9.00">HEAD</text>
</g>
<!-- HEAD&#45;&gt;branchname -->
<g id="edge6" class="edge">
<title>HEAD&#45;&gt;branchname</title>
<path fill="none" stroke="black" stroke-dasharray="1,5" d="M37,-334.52C37,-324.58 37,-307.52 37,-294.34"/>
<polygon fill="black" stroke="black" points="40.5,-294.02 37,-284.02 33.5,-294.02 40.5,-294.02"/>
<text text-anchor="middle" x="49.5" y="-305.54" font-family="Times,serif" font-size="14.00">ref:</text>
</g>
<!-- remote -->
<g id="node6" class="node">
<title>remote</title>
<polygon fill="lightblue" stroke="black" points="238,-283.74 92,-283.74 92,-265.74 238,-265.74 238,-283.74"/>
<text text-anchor="middle" x="165" y="-272.54" font-family="Times,serif" font-size="9.00">remotes/MYSERVER/master</text>
</g>
<!-- remote&#45;&gt;commit -->
<g id="edge7" class="edge">
<title>remote&#45;&gt;commit</title>
<path fill="none" stroke="black" d="M161.33,-265.61C158.21,-258.71 153.51,-248.3 148.83,-237.93"/>
<polygon fill="black" stroke="black" points="151.89,-236.19 144.58,-228.52 145.51,-239.07 151.89,-236.19"/>
</g>
</g>
</svg>
