<?xml version="1.0" encoding="UTF-8" standalone="no"?>
<!DOCTYPE svg PUBLIC "-//W3C//DTD SVG 1.1//EN"
 "http://www.w3.org/Graphics/SVG/1.1/DTD/svg11.dtd">
<!-- Generated by graphviz version 2.47.3 (0)
 -->
<!-- Title: git&#45;history Pages: 1 -->
<svg width="226pt" height="98pt"
 viewBox="0.00 0.00 226.00 98.00" xmlns="http://www.w3.org/2000/svg" xmlns:xlink="http://www.w3.org/1999/xlink">
<g id="graph0" class="graph" transform="scale(1 1) rotate(0) translate(4 94)">
<title>git&#45;history</title>
<polygon fill="white" stroke="transparent" points="-4,4 -4,-94 222,-94 222,4 -4,4"/>
<!-- remote -->
<g id="node1" class="node">
<title>remote</title>
<polygon fill="lightblue" stroke="black" points="146,-90 0,-90 0,-72 146,-72 146,-90"/>
<text text-anchor="middle" x="73" y="-78.8" font-family="Times,serif" font-size="9.00">remotes/MYSERVER/master</text>
</g>
<!-- a -->
<g id="node3" class="node">
<title>a</title>
<ellipse fill="none" stroke="black" cx="132" cy="-18" rx="27" ry="18"/>
<text text-anchor="middle" x="132" y="-14.3" font-family="Times,serif" font-size="14.00">a</text>
</g>
<!-- remote&#45;&gt;a -->
<g id="edge1" class="edge">
<title>remote&#45;&gt;a</title>
<path fill="none" stroke="black" d="M80.96,-71.77C88.55,-63.92 100.33,-51.74 110.66,-41.06"/>
<polygon fill="black" stroke="black" points="113.41,-43.25 117.85,-33.63 108.38,-38.39 113.41,-43.25"/>
</g>
<!-- master -->
<g id="node2" class="node">
<title>master</title>
<polygon fill="yellow" stroke="black" points="218,-90 164,-90 164,-72 218,-72 218,-90"/>
<text text-anchor="middle" x="191" y="-78.8" font-family="Times,serif" font-size="9.00">master</text>
</g>
<!-- master&#45;&gt;a -->
<g id="edge2" class="edge">
<title>master&#45;&gt;a</title>
<path fill="none" stroke="black" d="M183.04,-71.77C175.45,-63.92 163.67,-51.74 153.34,-41.06"/>
<polygon fill="black" stroke="black" points="155.62,-38.39 146.15,-33.63 150.59,-43.25 155.62,-38.39"/>
</g>
</g>
</svg>
