<?xml version="1.0" encoding="UTF-8" standalone="no"?>
<!DOCTYPE svg PUBLIC "-//W3C//DTD SVG 1.1//EN"
 "http://www.w3.org/Graphics/SVG/1.1/DTD/svg11.dtd">
<!-- Generated by graphviz version 2.47.3 (0)
 -->
<!-- Title: git&#45;history Pages: 1 -->
<svg width="242pt" height="458pt"
 viewBox="0.00 0.00 242.00 458.00" xmlns="http://www.w3.org/2000/svg" xmlns:xlink="http://www.w3.org/1999/xlink">
<g id="graph0" class="graph" transform="scale(1 1) rotate(0) translate(4 454)">
<title>git&#45;history</title>
<polygon fill="white" stroke="transparent" points="-4,4 -4,-454 238,-454 238,4 -4,4"/>
<g id="clust2" class="cluster">
<title>cluster_developer2</title>
</g>
<!-- remote -->
<g id="node1" class="node">
<title>remote</title>
<polygon fill="lightblue" stroke="black" points="146,-387 0,-387 0,-369 146,-369 146,-387"/>
<text text-anchor="middle" x="73" y="-375.8" font-family="Times,serif" font-size="9.00">remotes/MYSERVER/master</text>
</g>
<!-- g -->
<g id="node8" class="node">
<title>g</title>
<ellipse fill="none" stroke="black" cx="119" cy="-306" rx="27" ry="18"/>
<text text-anchor="middle" x="119" y="-302.3" font-family="Times,serif" font-size="14.00">g</text>
</g>
<!-- remote&#45;&gt;g -->
<g id="edge11" class="edge">
<title>remote&#45;&gt;g</title>
<path fill="none" stroke="black" d="M78.28,-368.97C84.26,-359.87 94.3,-344.59 102.91,-331.48"/>
<polygon fill="black" stroke="black" points="106.02,-333.13 108.58,-322.85 100.17,-329.29 106.02,-333.13"/>
</g>
<!-- master -->
<g id="node2" class="node">
<title>master</title>
<polygon fill="yellow" stroke="black" points="218,-450 164,-450 164,-432 218,-432 218,-450"/>
<text text-anchor="middle" x="191" y="-438.8" font-family="Times,serif" font-size="9.00">master</text>
</g>
<!-- i -->
<g id="node11" class="node">
<title>i</title>
<ellipse fill="none" stroke="black" cx="191" cy="-378" rx="27" ry="18"/>
<text text-anchor="middle" x="191" y="-374.3" font-family="Times,serif" font-size="14.00">i</text>
</g>
<!-- master&#45;&gt;i -->
<g id="edge12" class="edge">
<title>master&#45;&gt;i</title>
<path fill="none" stroke="black" d="M191,-431.77C191,-425.16 191,-415.47 191,-406.19"/>
<polygon fill="black" stroke="black" points="194.5,-406.08 191,-396.08 187.5,-406.08 194.5,-406.08"/>
</g>
<!-- a -->
<g id="node3" class="node">
<title>a</title>
<ellipse fill="none" stroke="black" cx="119" cy="-18" rx="27" ry="18"/>
<text text-anchor="middle" x="119" y="-14.3" font-family="Times,serif" font-size="14.00">a</text>
</g>
<!-- b -->
<g id="node4" class="node">
<title>b</title>
<ellipse fill="none" stroke="black" cx="119" cy="-90" rx="27" ry="18"/>
<text text-anchor="middle" x="119" y="-86.3" font-family="Times,serif" font-size="14.00">b</text>
</g>
<!-- b&#45;&gt;a -->
<g id="edge1" class="edge">
<title>b&#45;&gt;a</title>
<path fill="none" stroke="black" d="M119,-71.7C119,-63.98 119,-54.71 119,-46.11"/>
<polygon fill="black" stroke="black" points="122.5,-46.1 119,-36.1 115.5,-46.1 122.5,-46.1"/>
</g>
<!-- c -->
<g id="node5" class="node">
<title>c</title>
<ellipse fill="none" stroke="black" cx="119" cy="-162" rx="27" ry="18"/>
<text text-anchor="middle" x="119" y="-158.3" font-family="Times,serif" font-size="14.00">c</text>
</g>
<!-- c&#45;&gt;b -->
<g id="edge2" class="edge">
<title>c&#45;&gt;b</title>
<path fill="none" stroke="black" d="M119,-143.7C119,-135.98 119,-126.71 119,-118.11"/>
<polygon fill="black" stroke="black" points="122.5,-118.1 119,-108.1 115.5,-118.1 122.5,-118.1"/>
</g>
<!-- d -->
<g id="node6" class="node">
<title>d</title>
<ellipse fill="none" stroke="black" cx="191" cy="-162" rx="27" ry="18"/>
<text text-anchor="middle" x="191" y="-158.3" font-family="Times,serif" font-size="14.00">d</text>
</g>
<!-- d&#45;&gt;b -->
<g id="edge3" class="edge">
<title>d&#45;&gt;b</title>
<path fill="none" stroke="black" d="M176.43,-146.83C166.25,-136.94 152.48,-123.55 140.97,-112.36"/>
<polygon fill="black" stroke="black" points="143.41,-109.85 133.8,-105.38 138.53,-114.87 143.41,-109.85"/>
</g>
<!-- e -->
<g id="node7" class="node">
<title>e</title>
<ellipse fill="none" stroke="black" cx="191" cy="-234" rx="27" ry="18"/>
<text text-anchor="middle" x="191" y="-230.3" font-family="Times,serif" font-size="14.00">e</text>
</g>
<!-- e&#45;&gt;c -->
<g id="edge4" class="edge">
<title>e&#45;&gt;c</title>
<path fill="none" stroke="black" d="M176.43,-218.83C166.25,-208.94 152.48,-195.55 140.97,-184.36"/>
<polygon fill="black" stroke="black" points="143.41,-181.85 133.8,-177.38 138.53,-186.87 143.41,-181.85"/>
</g>
<!-- e&#45;&gt;d -->
<g id="edge5" class="edge">
<title>e&#45;&gt;d</title>
<path fill="none" stroke="black" d="M191,-215.7C191,-207.98 191,-198.71 191,-190.11"/>
<polygon fill="black" stroke="black" points="194.5,-190.1 191,-180.1 187.5,-190.1 194.5,-190.1"/>
</g>
<!-- f -->
<g id="node9" class="node">
<title>f</title>
<ellipse fill="none" stroke="black" cx="119" cy="-234" rx="27" ry="18"/>
<text text-anchor="middle" x="119" y="-230.3" font-family="Times,serif" font-size="14.00">f</text>
</g>
<!-- g&#45;&gt;f -->
<g id="edge6" class="edge">
<title>g&#45;&gt;f</title>
<path fill="none" stroke="black" d="M119,-287.7C119,-279.98 119,-270.71 119,-262.11"/>
<polygon fill="black" stroke="black" points="122.5,-262.1 119,-252.1 115.5,-262.1 122.5,-262.1"/>
</g>
<!-- f&#45;&gt;c -->
<g id="edge7" class="edge">
<title>f&#45;&gt;c</title>
<path fill="none" stroke="black" d="M119,-215.7C119,-207.98 119,-198.71 119,-190.11"/>
<polygon fill="black" stroke="black" points="122.5,-190.1 119,-180.1 115.5,-190.1 122.5,-190.1"/>
</g>
<!-- h -->
<g id="node10" class="node">
<title>h</title>
<ellipse fill="none" stroke="black" cx="191" cy="-306" rx="27" ry="18"/>
<text text-anchor="middle" x="191" y="-302.3" font-family="Times,serif" font-size="14.00">h</text>
</g>
<!-- h&#45;&gt;e -->
<g id="edge8" class="edge">
<title>h&#45;&gt;e</title>
<path fill="none" stroke="black" d="M191,-287.7C191,-279.98 191,-270.71 191,-262.11"/>
<polygon fill="black" stroke="black" points="194.5,-262.1 191,-252.1 187.5,-262.1 194.5,-262.1"/>
</g>
<!-- i&#45;&gt;g -->
<g id="edge9" class="edge">
<title>i&#45;&gt;g</title>
<path fill="none" stroke="black" d="M176.43,-362.83C166.25,-352.94 152.48,-339.55 140.97,-328.36"/>
<polygon fill="black" stroke="black" points="143.41,-325.85 133.8,-321.38 138.53,-330.87 143.41,-325.85"/>
</g>
<!-- i&#45;&gt;h -->
<g id="edge10" class="edge">
<title>i&#45;&gt;h</title>
<path fill="none" stroke="black" d="M191,-359.7C191,-351.98 191,-342.71 191,-334.11"/>
<polygon fill="black" stroke="black" points="194.5,-334.1 191,-324.1 187.5,-334.1 194.5,-334.1"/>
</g>
</g>
</svg>
