<?xml version="1.0" encoding="UTF-8" standalone="no"?>
<!DOCTYPE svg PUBLIC "-//W3C//DTD SVG 1.1//EN"
 "http://www.w3.org/Graphics/SVG/1.1/DTD/svg11.dtd">
<!-- Generated by graphviz version 2.47.3 (0)
 -->
<!-- Title: git&#45;history Pages: 1 -->
<svg width="226pt" height="170pt"
 viewBox="0.00 0.00 226.00 170.00" xmlns="http://www.w3.org/2000/svg" xmlns:xlink="http://www.w3.org/1999/xlink">
<g id="graph0" class="graph" transform="scale(1 1) rotate(0) translate(4 166)">
<title>git&#45;history</title>
<polygon fill="white" stroke="transparent" points="-4,4 -4,-166 222,-166 222,4 -4,4"/>
<!-- remote -->
<g id="node1" class="node">
<title>remote</title>
<polygon fill="lightblue" stroke="black" points="146,-162 0,-162 0,-144 146,-144 146,-162"/>
<text text-anchor="middle" x="73" y="-150.8" font-family="Times,serif" font-size="9.00">remotes/MYSERVER/master</text>
</g>
<!-- b -->
<g id="node4" class="node">
<title>b</title>
<ellipse fill="none" stroke="black" cx="132" cy="-90" rx="27" ry="18"/>
<text text-anchor="middle" x="132" y="-86.3" font-family="Times,serif" font-size="14.00">b</text>
</g>
<!-- remote&#45;&gt;b -->
<g id="edge2" class="edge">
<title>remote&#45;&gt;b</title>
<path fill="none" stroke="black" d="M80.96,-143.77C88.55,-135.92 100.33,-123.74 110.66,-113.06"/>
<polygon fill="black" stroke="black" points="113.41,-115.25 117.85,-105.63 108.38,-110.39 113.41,-115.25"/>
</g>
<!-- master -->
<g id="node2" class="node">
<title>master</title>
<polygon fill="yellow" stroke="black" points="218,-162 164,-162 164,-144 218,-144 218,-162"/>
<text text-anchor="middle" x="191" y="-150.8" font-family="Times,serif" font-size="9.00">master</text>
</g>
<!-- master&#45;&gt;b -->
<g id="edge3" class="edge">
<title>master&#45;&gt;b</title>
<path fill="none" stroke="black" d="M183.04,-143.77C175.45,-135.92 163.67,-123.74 153.34,-113.06"/>
<polygon fill="black" stroke="black" points="155.62,-110.39 146.15,-105.63 150.59,-115.25 155.62,-110.39"/>
</g>
<!-- a -->
<g id="node3" class="node">
<title>a</title>
<ellipse fill="none" stroke="black" cx="132" cy="-18" rx="27" ry="18"/>
<text text-anchor="middle" x="132" y="-14.3" font-family="Times,serif" font-size="14.00">a</text>
</g>
<!-- b&#45;&gt;a -->
<g id="edge1" class="edge">
<title>b&#45;&gt;a</title>
<path fill="none" stroke="black" d="M132,-71.7C132,-63.98 132,-54.71 132,-46.11"/>
<polygon fill="black" stroke="black" points="135.5,-46.1 132,-36.1 128.5,-46.1 135.5,-46.1"/>
</g>
</g>
</svg>
