<?xml version="1.0" encoding="UTF-8" standalone="no"?>
<!DOCTYPE svg PUBLIC "-//W3C//DTD SVG 1.1//EN"
 "http://www.w3.org/Graphics/SVG/1.1/DTD/svg11.dtd">
<!-- Generated by graphviz version 2.47.3 (0)
 -->
<!-- Title: git&#45;storage Pages: 1 -->
<svg width="205pt" height="361pt"
 viewBox="0.00 0.00 205.45 360.74" xmlns="http://www.w3.org/2000/svg" xmlns:xlink="http://www.w3.org/1999/xlink">
<g id="graph0" class="graph" transform="scale(1 1) rotate(0) translate(4 356.74)">
<title>git&#45;storage</title>
<polygon fill="white" stroke="transparent" points="-4,4 -4,-356.74 201.45,-356.74 201.45,4 -4,4"/>
<!-- blob -->
<g id="node1" class="node">
<title>blob</title>
<ellipse fill="none" stroke="black" cx="62.23" cy="-18" rx="30.59" ry="18"/>
<text text-anchor="middle" x="62.23" y="-14.3" font-family="Times,serif" font-size="14.00">blob</text>
</g>
<!-- tree -->
<g id="node2" class="node">
<title>tree</title>
<ellipse fill="none" stroke="black" cx="62.23" cy="-120" rx="29.8" ry="18"/>
<text text-anchor="middle" x="62.23" y="-116.3" font-family="Times,serif" font-size="14.00">tree</text>
</g>
<!-- tree&#45;&gt;blob -->
<g id="edge1" class="edge">
<title>tree&#45;&gt;blob</title>
<path fill="none" stroke="black" d="M62.23,-101.58C62.23,-86.38 62.23,-64.07 62.23,-46.46"/>
<polygon fill="black" stroke="black" points="65.73,-46.22 62.23,-36.22 58.73,-46.22 65.73,-46.22"/>
<text text-anchor="start" x="62.23" y="-72.8" font-family="Times,serif" font-size="14.00">+filename</text>
<text text-anchor="start" x="62.23" y="-57.8" font-family="Times,serif" font-size="14.00">+mode</text>
</g>
<!-- tree&#45;&gt;tree -->
<g id="edge2" class="edge">
<title>tree&#45;&gt;tree</title>
<path fill="none" stroke="black" d="M90.27,-126.72C101.11,-127.02 110.12,-124.78 110.12,-120 110.12,-116.86 106.24,-114.82 100.51,-113.87"/>
<polygon fill="black" stroke="black" points="100.45,-110.36 90.27,-113.28 100.05,-117.35 100.45,-110.36"/>
<text text-anchor="start" x="110.12" y="-123.8" font-family="Times,serif" font-size="14.00">subdir</text>
<text text-anchor="middle" x="146.62" y="-108.8" font-family="Times,serif" font-size="14.00">+filename</text>
</g>
<!-- commit -->
<g id="node3" class="node">
<title>commit</title>
<ellipse fill="none" stroke="black" cx="62.23" cy="-201.87" rx="62.45" ry="26.74"/>
<text text-anchor="start" x="26.23" y="-205.67" font-family="Times,serif" font-size="14.00">commit</text>
<text text-anchor="start" x="26.23" y="-190.67" font-family="Times,serif" font-size="14.00">&#45; message</text>
</g>
<!-- commit&#45;&gt;tree -->
<g id="edge3" class="edge">
<title>commit&#45;&gt;tree</title>
<path fill="none" stroke="black" d="M62.23,-174.72C62.23,-166.27 62.23,-156.89 62.23,-148.36"/>
<polygon fill="black" stroke="black" points="65.73,-148.15 62.23,-138.15 58.73,-148.15 65.73,-148.15"/>
</g>
<!-- commit&#45;&gt;commit -->
<g id="edge4" class="edge">
<title>commit&#45;&gt;commit</title>
<path fill="none" stroke="black" d="M121.7,-209.81C133.79,-208.94 142.45,-206.3 142.45,-201.87 142.45,-198.83 138.36,-196.63 131.87,-195.27"/>
<polygon fill="black" stroke="black" points="132.07,-191.76 121.7,-193.93 131.16,-198.7 132.07,-191.76"/>
<text text-anchor="middle" x="169.95" y="-198.17" font-family="Times,serif" font-size="14.00">parents</text>
</g>
<!-- branchname -->
<g id="node4" class="node">
<title>branchname</title>
<polygon fill="yellow" stroke="black" points="99.23,-283.74 25.23,-283.74 25.23,-265.74 99.23,-265.74 99.23,-283.74"/>
<text text-anchor="middle" x="62.23" y="-272.54" font-family="Times,serif" font-size="9.00">branchname</text>
</g>
<!-- branchname&#45;&gt;commit -->
<g id="edge5" class="edge">
<title>branchname&#45;&gt;commit</title>
<path fill="none" stroke="black" d="M62.23,-265.61C62.23,-258.97 62.23,-249.09 62.23,-239.12"/>
<polygon fill="black" stroke="black" points="65.73,-238.84 62.23,-228.84 58.73,-238.84 65.73,-238.84"/>
</g>
<!-- HEAD -->
<g id="node5" class="node">
<title>HEAD</title>
<polygon fill="yellow" stroke="black" points="89.23,-352.74 35.23,-352.74 35.23,-334.74 89.23,-334.74 89.23,-352.74"/>
<text text-anchor="middle" x="62.23" y="-341.54" font-family="Times,serif" font-size="9.00">HEAD</text>
</g>
<!-- HEAD&#45;&gt;branchname -->
<g id="edge6" class="edge">
<title>HEAD&#45;&gt;branchname</title>
<path fill="none" stroke="black" stroke-dasharray="1,5" d="M62.23,-334.52C62.23,-324.58 62.23,-307.52 62.23,-294.34"/>
<polygon fill="black" stroke="black" points="65.73,-294.02 62.23,-284.02 58.73,-294.02 65.73,-294.02"/>
<text text-anchor="middle" x="74.73" y="-305.54" font-family="Times,serif" font-size="14.00">ref:</text>
</g>
</g>
</svg>
