<?xml version="1.0" encoding="UTF-8" standalone="no"?>
<!DOCTYPE svg PUBLIC "-//W3C//DTD SVG 1.1//EN"
 "http://www.w3.org/Graphics/SVG/1.1/DTD/svg11.dtd">
<!-- Generated by graphviz version 2.47.3 (0)
 -->
<!-- Title: git&#45;history Pages: 1 -->
<svg width="253pt" height="332pt"
 viewBox="0.00 0.00 253.00 332.00" xmlns="http://www.w3.org/2000/svg" xmlns:xlink="http://www.w3.org/1999/xlink">
<g id="graph0" class="graph" transform="scale(1 1) rotate(0) translate(4 328)">
<title>git&#45;history</title>
<polygon fill="white" stroke="transparent" points="-4,4 -4,-328 249,-328 249,4 -4,4"/>
<g id="clust2" class="cluster">
<title>cluster_developer2</title>
</g>
<!-- remote -->
<g id="node1" class="node">
<title>remote</title>
<polygon fill="lightblue" stroke="black" points="146,-260 0,-260 0,-242 146,-242 146,-260"/>
<text text-anchor="middle" x="73" y="-248.8" font-family="Times,serif" font-size="9.00">remotes/MYSERVER/master</text>
</g>
<!-- c -->
<g id="node5" class="node">
<title>c</title>
<ellipse fill="none" stroke="black" cx="85" cy="-164" rx="27" ry="18"/>
<text text-anchor="middle" x="85" y="-160.3" font-family="Times,serif" font-size="14.00">c</text>
</g>
<!-- remote&#45;&gt;c -->
<g id="edge6" class="edge">
<title>remote&#45;&gt;c</title>
<path fill="none" stroke="black" d="M74.15,-241.85C75.75,-230.49 78.74,-209.37 81.17,-192.13"/>
<polygon fill="black" stroke="black" points="84.66,-192.42 82.6,-182.03 77.73,-191.44 84.66,-192.42"/>
</g>
<!-- master -->
<g id="node2" class="node">
<title>master</title>
<polygon fill="yellow" stroke="black" points="223,-324 169,-324 169,-306 223,-306 223,-324"/>
<text text-anchor="middle" x="196" y="-312.8" font-family="Times,serif" font-size="9.00">master</text>
</g>
<!-- d2 -->
<g id="node7" class="node">
<title>d2</title>
<ellipse fill="none" stroke="black" cx="196" cy="-251" rx="27" ry="18"/>
<text text-anchor="middle" x="196" y="-247.3" font-family="Times,serif" font-size="14.00">d2</text>
</g>
<!-- master&#45;&gt;d2 -->
<g id="edge7" class="edge">
<title>master&#45;&gt;d2</title>
<path fill="none" stroke="black" d="M196,-305.89C196,-299.1 196,-288.98 196,-279.34"/>
<polygon fill="black" stroke="black" points="199.5,-279.25 196,-269.25 192.5,-279.25 199.5,-279.25"/>
</g>
<!-- a -->
<g id="node3" class="node">
<title>a</title>
<ellipse fill="none" stroke="black" cx="85" cy="-18" rx="27" ry="18"/>
<text text-anchor="middle" x="85" y="-14.3" font-family="Times,serif" font-size="14.00">a</text>
</g>
<!-- b -->
<g id="node4" class="node">
<title>b</title>
<ellipse fill="none" stroke="black" cx="85" cy="-91" rx="27" ry="18"/>
<text text-anchor="middle" x="85" y="-87.3" font-family="Times,serif" font-size="14.00">b</text>
</g>
<!-- b&#45;&gt;a -->
<g id="edge1" class="edge">
<title>b&#45;&gt;a</title>
<path fill="none" stroke="black" d="M85,-72.81C85,-64.79 85,-55.05 85,-46.07"/>
<polygon fill="black" stroke="black" points="88.5,-46.03 85,-36.03 81.5,-46.03 88.5,-46.03"/>
</g>
<!-- c&#45;&gt;b -->
<g id="edge2" class="edge">
<title>c&#45;&gt;b</title>
<path fill="none" stroke="black" d="M85,-145.81C85,-137.79 85,-128.05 85,-119.07"/>
<polygon fill="black" stroke="black" points="88.5,-119.03 85,-109.03 81.5,-119.03 88.5,-119.03"/>
</g>
<!-- d -->
<g id="node6" class="node">
<title>d</title>
<ellipse fill="none" stroke="gray" stroke-dasharray="1,5" cx="189" cy="-164" rx="27" ry="18"/>
<text text-anchor="middle" x="189" y="-160.3" font-family="Times,serif" font-size="14.00">d</text>
</g>
<!-- d&#45;&gt;b -->
<g id="edge3" class="edge">
<title>d&#45;&gt;b</title>
<path fill="none" stroke="black" d="M170.88,-150.63C154.51,-139.45 130.18,-122.85 111.6,-110.16"/>
<polygon fill="black" stroke="black" points="113.49,-107.21 103.26,-104.46 109.54,-112.99 113.49,-107.21"/>
</g>
<!-- d2&#45;&gt;c -->
<g id="edge4" class="edge">
<title>d2&#45;&gt;c</title>
<path fill="none" stroke="black" d="M178.66,-236.72C160.33,-222.68 131.24,-200.41 110.34,-184.41"/>
<polygon fill="black" stroke="black" points="112.29,-181.49 102.22,-178.19 108.03,-187.05 112.29,-181.49"/>
</g>
<!-- d2&#45;&gt;d -->
<g id="edge5" class="edge">
<title>d2&#45;&gt;d</title>
<path fill="none" stroke="blue" d="M193.75,-222.73C192.66,-209.42 191.37,-193.81 190.41,-182.18"/>
<polygon fill="blue" stroke="blue" points="190.27,-223.12 194.58,-232.8 197.25,-222.55 190.27,-223.12"/>
<text text-anchor="middle" x="216.5" y="-203.8" font-family="Times,serif" font-size="14.00">rebase</text>
</g>
</g>
</svg>
