<?xml version="1.0" encoding="UTF-8" standalone="no"?>
<svg
   xmlns:dc="http://purl.org/dc/elements/1.1/"
   xmlns:cc="http://creativecommons.org/ns#"
   xmlns:rdf="http://www.w3.org/1999/02/22-rdf-syntax-ns#"
   xmlns:svg="http://www.w3.org/2000/svg"
   xmlns="http://www.w3.org/2000/svg"
   viewBox="0 0 1200 675"
   height="675"
   width="1200"
   xml:space="preserve"
   version="1.1"
   id="svg2"><metadata
     id="metadata8"><rdf:RDF><cc:Work
         rdf:about=""><dc:format>image/svg+xml</dc:format><dc:type
           rdf:resource="http://purl.org/dc/dcmitype/StillImage" /></cc:Work></rdf:RDF></metadata><defs
     id="defs6"><clipPath
       id="clipPath16"
       clipPathUnits="userSpaceOnUse"><path
         style="clip-rule:evenodd"
         id="path18"
         d="m 0,1.2207e-4 960,0 0,539.99999793 -960,0 L 0,1.2207e-4 Z" /></clipPath><clipPath
       id="clipPath26"
       clipPathUnits="userSpaceOnUse"><path
         style="clip-rule:evenodd"
         id="path28"
         d="m 0,1.8311e-4 960,0 0,539.99999689 -960,0 L 0,1.8311e-4 Z" /></clipPath><clipPath
       id="clipPath36"
       clipPathUnits="userSpaceOnUse"><path
         style="clip-rule:evenodd"
         id="path38"
         d="M 1.4305e-5,0 960.00001,0 l 0,540 -959.999995695,0 0,-540 z" /></clipPath><clipPath
       id="clipPath48"
       clipPathUnits="userSpaceOnUse"><path
         style="clip-rule:evenodd"
         id="path50"
         d="M 1.4305e-5,0 960.00001,0 l 0,540 -959.999995695,0 0,-540 z" /></clipPath><clipPath
       id="clipPath60"
       clipPathUnits="userSpaceOnUse"><path
         style="clip-rule:evenodd"
         id="path62"
         d="M -4.77e-7,0 960,0 960,540 -4.77e-7,540 l 0,-540 z" /></clipPath><clipPath
       id="clipPath70"
       clipPathUnits="userSpaceOnUse"><path
         style="clip-rule:evenodd"
         id="path72"
         d="M 1.4305e-5,0 960.00001,0 l 0,540 -959.999995695,0 0,-540 z" /></clipPath><clipPath
       id="clipPath82"
       clipPathUnits="userSpaceOnUse"><path
         style="clip-rule:evenodd"
         id="path84"
         d="M 1.4305e-5,0 960.00001,0 l 0,540 -959.999995695,0 0,-540 z" /></clipPath><clipPath
       id="clipPath94"
       clipPathUnits="userSpaceOnUse"><path
         style="clip-rule:evenodd"
         id="path96"
         d="M 1.4305e-5,0 960.00001,0 l 0,540 -959.999995695,0 0,-540 z" /></clipPath><clipPath
       id="clipPath106"
       clipPathUnits="userSpaceOnUse"><path
         style="clip-rule:evenodd"
         id="path108"
         d="M 1.4305e-5,0 960.00001,0 l 0,540 -959.999995695,0 0,-540 z" /></clipPath><clipPath
       id="clipPath118"
       clipPathUnits="userSpaceOnUse"><path
         style="clip-rule:evenodd"
         id="path120"
         d="M 1.4305e-5,0 960.00001,0 l 0,540 -959.999995695,0 0,-540 z" /></clipPath><clipPath
       id="clipPath130"
       clipPathUnits="userSpaceOnUse"><path
         style="clip-rule:evenodd"
         id="path132"
         d="M 1.4305e-5,0 960.00001,0 l 0,540 -959.999995695,0 0,-540 z" /></clipPath><clipPath
       id="clipPath142"
       clipPathUnits="userSpaceOnUse"><path
         style="clip-rule:evenodd"
         id="path144"
         d="M 1.4305e-5,0 960.00001,0 l 0,540 -959.999995695,0 0,-540 z" /></clipPath><clipPath
       id="clipPath154"
       clipPathUnits="userSpaceOnUse"><path
         style="clip-rule:evenodd"
         id="path156"
         d="M 1.4305e-5,0 960.00001,0 l 0,540 -959.999995695,0 0,-540 z" /></clipPath><clipPath
       id="clipPath166"
       clipPathUnits="userSpaceOnUse"><path
         style="clip-rule:evenodd"
         id="path168"
         d="M 1.4305e-5,0 960.00001,0 l 0,540 -959.999995695,0 0,-540 z" /></clipPath><clipPath
       id="clipPath178"
       clipPathUnits="userSpaceOnUse"><path
         style="clip-rule:evenodd"
         id="path180"
         d="M 0,540 960,540 960,1.8311e-4 -3.0518e-5,1.2207e-4" /></clipPath><clipPath
       id="clipPath188"
       clipPathUnits="userSpaceOnUse"><path
         style="clip-rule:evenodd"
         id="path190"
         d="M -1.2207e-4,540 960,540 960,6.1035e-5 -1.8311e-4,0" /></clipPath></defs><g
     transform="matrix(1.25,0,0,-1.25,0,675)"
     id="g10"><g
       id="g12"><g
         clip-path="url(#clipPath16)"
         id="g14"><path
           id="path20"
           style="fill:#ffffff;fill-opacity:1;fill-rule:evenodd;stroke:none"
           d="m 0,6.1035e-5 960,0 0,539.999998965 -960,0 L 0,6.1035e-5 Z" /></g></g><g
       id="g22"><g
         clip-path="url(#clipPath26)"
         id="g24"><path
           id="path30"
           style="fill:#e7e6e6;fill-opacity:1;fill-rule:evenodd;stroke:none"
           d="M 6.72,0 960,0 960,319.56 6.72,319.56 6.72,0 Z" /></g></g><g
       id="g32"><g
         clip-path="url(#clipPath36)"
         id="g34"><text
           id="text40"
           style="font-variant:normal;font-weight:normal;font-size:39.95999908px;font-family:Helvetica;-inkscape-font-specification:Helvetica;writing-mode:lr-tb;fill:#000000;fill-opacity:1;fill-rule:nonzero;stroke:none"
           transform="matrix(1,0,0,-1,7.2,497.23)"><tspan
             id="tspan42"
             y="0"
             x="0 19.98 28.85112 37.72224 59.939999 82.157761">client</tspan></text>
</g></g><g
       id="g44"><g
         clip-path="url(#clipPath48)"
         id="g46"><text
           id="text52"
           style="font-variant:normal;font-weight:normal;font-size:39.95999908px;font-family:Helvetica;-inkscape-font-specification:Helvetica;writing-mode:lr-tb;fill:#000000;fill-opacity:1;fill-rule:nonzero;stroke:none"
           transform="matrix(1,0,0,-1,21.504,142.97)"><tspan
             id="tspan54"
             y="0"
             x="0 8.8711205 42.157799 64.375557 73.246681 95.464439 128.75111 150.96889 173.18665 184.29552 206.51328">implementer</tspan></text>
</g></g><g
       id="g56"><g
         clip-path="url(#clipPath60)"
         id="g58"><path
           id="path64"
           style="fill:none;stroke:#ff0000;stroke-width:3;stroke-linecap:butt;stroke-linejoin:miter;stroke-miterlimit:10;stroke-dasharray:none;stroke-opacity:1"
           d="m 6.78,319.48 953.23,2.06" /></g></g><g
       id="g66"><g
         clip-path="url(#clipPath70)"
         id="g68"><text
           id="text74"
           style="font-style:italic;font-variant:normal;font-weight:normal;font-size:32.04000092px;font-family:Helvetica;-inkscape-font-specification:'Helvetica Italic';writing-mode:lr-tb;fill:#ff0000;fill-opacity:1;fill-rule:nonzero;stroke:none"
           transform="matrix(1,0,0,-1,388.92,332.04)"><tspan
             id="tspan76"
             y="0"
             x="0 16.02 33.83424 51.648479 67.66848 74.781357 83.688477 90.801361 106.82136 124.6356 133.44659 140.55948 158.37372">specification</tspan></text>
</g></g><g
       id="g78"><g
         clip-path="url(#clipPath82)"
         id="g80"><text
           id="text86"
           style="font-variant:normal;font-weight:normal;font-size:36px;font-family:Helvetica;-inkscape-font-specification:Helvetica;writing-mode:lr-tb;fill:#000000;fill-opacity:1;fill-rule:nonzero;stroke:none"
           transform="matrix(1,0,0,-1,203.81,466.39)"><tspan
             id="tspan88"
             y="0"
             x="0 7.9920001 28.007999 48.023998 68.112">input</tspan></text>
</g></g><g
       id="g90"><g
         clip-path="url(#clipPath94)"
         id="g92"><text
           id="text98"
           style="font-variant:normal;font-weight:normal;font-size:36px;font-family:Helvetica;-inkscape-font-specification:Helvetica;writing-mode:lr-tb;fill:#000000;fill-opacity:1;fill-rule:nonzero;stroke:none"
           transform="matrix(1,0,0,-1,674.88,466.39)"><tspan
             id="tspan100"
             y="0"
             x="0 20.016001 40.032001 50.040001 70.056 90.071999">output</tspan></text>
</g></g><g
       id="g102"><g
         clip-path="url(#clipPath106)"
         id="g104"><text
           id="text110"
           style="font-variant:normal;font-weight:normal;font-size:39.98400116px;font-family:Helvetica;-inkscape-font-specification:Helvetica;writing-mode:lr-tb;fill:#000000;fill-opacity:1;fill-rule:nonzero;stroke:none"
           transform="matrix(1,0,0,-1,374.88,177.41)"><tspan
             id="tspan112"
             y="0"
             x="0 19.992001 42.223103 75.529778 97.76088 119.99198 131.10753 153.33864 164.45419 173.33064 195.56174">computation</tspan></text>
</g></g><g
       id="g114"><g
         clip-path="url(#clipPath118)"
         id="g116"><text
           id="text122"
           style="font-variant:normal;font-weight:normal;font-size:36.02399826px;font-family:Helvetica;-inkscape-font-specification:Helvetica;writing-mode:lr-tb;fill:#000000;fill-opacity:1;fill-rule:nonzero;stroke:none"
           transform="matrix(1,0,0,-1,85.416,425.18)"><tspan
             id="tspan124"
             y="0"
             x="0 18.011999 38.041344 48.056015 56.053345 74.065346 84.080017 92.077347 112.10669 130.11868">satisfies </tspan></text>
</g></g><g
       id="g126"><g
         clip-path="url(#clipPath130)"
         id="g128"><text
           id="text134"
           style="font-variant:normal;font-weight:bold;font-size:36.02399826px;font-family:Helvetica;-inkscape-font-specification:'Helvetica Bold';writing-mode:lr-tb;fill:#000000;fill-opacity:1;fill-rule:nonzero;stroke:none"
           transform="matrix(1,0,0,-1,225.48,425.18)"><tspan
             id="tspan136"
             y="0"
             x="0 22.010664 36.023998 56.053345 76.082687 98.093353 120.10402 141.97058 151.98526 163.98125 173.99593 195.86249">precondition</tspan></text>
</g></g><g
       id="g138"><g
         clip-path="url(#clipPath142)"
         id="g140"><text
           id="text146"
           style="font-variant:normal;font-weight:normal;font-size:36px;font-family:Helvetica;-inkscape-font-specification:Helvetica;writing-mode:lr-tb;fill:#000000;fill-opacity:1;fill-rule:nonzero;stroke:none"
           transform="matrix(1,0,0,-1,573.38,430.92)"><tspan
             id="tspan148"
             y="0"
             x="0 18 38.015999 48.023998 56.015999 74.015999 84.024002 92.015999 112.032 130.032">satisfies </tspan></text>
</g></g><g
       id="g150"><g
         clip-path="url(#clipPath154)"
         id="g152"><text
           id="text158"
           style="font-variant:normal;font-weight:bold;font-size:36px;font-family:Helvetica;-inkscape-font-specification:'Helvetica Bold';writing-mode:lr-tb;fill:#000000;fill-opacity:1;fill-rule:nonzero;stroke:none"
           transform="matrix(1,0,0,-1,713.45,430.92)"><tspan
             id="tspan160"
             y="0"
             x="0 21.996 43.992001 64.008003 75.996002 96.012001 118.008 140.004 161.892 171.89999 183.888 193.896 215.784">postcondition</tspan></text>
</g></g><g
       id="g162"><g
         clip-path="url(#clipPath166)"
         id="g164"><text
           id="text170"
           style="font-variant:normal;font-weight:normal;font-size:54px;font-family:CambriaMath;-inkscape-font-specification:CambriaMath;writing-mode:lr-tb;fill:#000000;fill-opacity:1;fill-rule:nonzero;stroke:none"
           transform="matrix(1,0,0,-1,468.48,440.33)"><tspan
             id="tspan172"
             y="0"
             x="0">⇒</tspan></text>
</g></g><g
       id="g174"><g
         clip-path="url(#clipPath178)"
         id="g176"><path
           id="path182"
           style="fill:none;stroke:#4472c4;stroke-width:2.25;stroke-linecap:butt;stroke-linejoin:miter;stroke-miterlimit:10;stroke-dasharray:none;stroke-opacity:1"
           d="m 190.54,419.62 147.85,-254.41 19.62,11.4 -11.47,-43.29 -43.29,11.47 19.62,11.4 -147.85,254.41 15.52,9.02 z" /></g></g><g
       id="g184"><g
         clip-path="url(#clipPath188)"
         id="g186"><path
           id="path192"
           style="fill:none;stroke:#4472c4;stroke-width:2.25;stroke-linecap:butt;stroke-linejoin:miter;stroke-miterlimit:10;stroke-dasharray:none;stroke-opacity:1"
           d="m 614.31,139.26 152.22,256.78 -19.52,11.57 43.39,11.09 11.09,-43.39 -19.52,11.57 -152.22,-256.78 -15.44,9.16 z" /></g></g><path
       id="path194"
       style="fill:none;stroke:#4472c4;stroke-width:2.27999997;stroke-linecap:butt;stroke-linejoin:miter;stroke-miterlimit:10;stroke-dasharray:none;stroke-opacity:1"
       d="m 357.9,143.12 221.7,0 0,22.66 31.62,-31.62 -31.62,-31.62 0,22.66 -221.7,0 0,17.92 z" /></g></svg>