<?xml version="1.0" encoding="UTF-8" standalone="no"?>
<svg
   xmlns:dc="http://purl.org/dc/elements/1.1/"
   xmlns:cc="http://creativecommons.org/ns#"
   xmlns:rdf="http://www.w3.org/1999/02/22-rdf-syntax-ns#"
   xmlns:svg="http://www.w3.org/2000/svg"
   xmlns="http://www.w3.org/2000/svg"
   viewBox="0 0 960 720"
   height="720"
   width="960"
   xml:space="preserve"
   id="svg2"
   version="1.1"><metadata
     id="metadata8"><rdf:RDF><cc:Work
         rdf:about=""><dc:format>image/svg+xml</dc:format><dc:type
           rdf:resource="http://purl.org/dc/dcmitype/StillImage" /></cc:Work></rdf:RDF></metadata><defs
     id="defs6"><clipPath
       id="clipPath18"
       clipPathUnits="userSpaceOnUse"><path
         style="clip-rule:evenodd"
         id="path16"
         d="M 0,1.2207e-4 H 720 V 540.00012 H 0 Z" /></clipPath><clipPath
       id="clipPath30"
       clipPathUnits="userSpaceOnUse"><path
         style="clip-rule:evenodd"
         id="path28"
         d="M -4.77e-7,1.8311e-4 H 720 V 540.00018 H -4.77e-7 Z" /></clipPath><clipPath
       id="clipPath40"
       clipPathUnits="userSpaceOnUse"><path
         style="clip-rule:evenodd"
         id="path38"
         d="M -1.5259e-5,540 H 720 V -6.1035e-5 L -1.5259e-5,0" /></clipPath><clipPath
       id="clipPath50"
       clipPathUnits="userSpaceOnUse"><path
         style="clip-rule:evenodd"
         id="path48"
         d="M -1.5259e-5,540 H 720 V -6.1035e-5 L -1.5259e-5,0" /></clipPath><clipPath
       id="clipPath60"
       clipPathUnits="userSpaceOnUse"><path
         style="clip-rule:evenodd"
         id="path58"
         d="M 0,540 H 720 V 1.8311e-4 L -1.5259e-5,1.2207e-4" /></clipPath><clipPath
       id="clipPath70"
       clipPathUnits="userSpaceOnUse"><path
         style="clip-rule:evenodd"
         id="path68"
         d="M 1.0729e-5,0 H 720.00001 V 540 H 1.0729e-5 Z" /></clipPath><clipPath
       id="clipPath82"
       clipPathUnits="userSpaceOnUse"><path
         style="clip-rule:evenodd"
         id="path80"
         d="M 1.0729e-5,0 H 720.00001 V 540 H 1.0729e-5 Z" /></clipPath><clipPath
       id="clipPath94"
       clipPathUnits="userSpaceOnUse"><path
         style="clip-rule:evenodd"
         id="path92"
         d="M 1.0729e-5,0 H 720.00001 V 540 H 1.0729e-5 Z" /></clipPath><clipPath
       id="clipPath106"
       clipPathUnits="userSpaceOnUse"><path
         style="clip-rule:evenodd"
         id="path104"
         d="M 1.0729e-5,0 H 720.00001 V 540 H 1.0729e-5 Z" /></clipPath><clipPath
       id="clipPath118"
       clipPathUnits="userSpaceOnUse"><path
         style="clip-rule:evenodd"
         id="path116"
         d="M 1.0729e-5,0 H 720.00001 V 540 H 1.0729e-5 Z" /></clipPath><clipPath
       id="clipPath130"
       clipPathUnits="userSpaceOnUse"><path
         style="clip-rule:evenodd"
         id="path128"
         d="M 1.0729e-5,0 H 720.00001 V 540 H 1.0729e-5 Z" /></clipPath><clipPath
       id="clipPath142"
       clipPathUnits="userSpaceOnUse"><path
         style="clip-rule:evenodd"
         id="path140"
         d="M -4.0054e-5,540 H 720 V 1.2207e-4 L -5.5313e-5,6.1035e-5" /></clipPath><clipPath
       id="clipPath152"
       clipPathUnits="userSpaceOnUse"><path
         style="clip-rule:evenodd"
         id="path150"
         d="M -2.6703e-5,540 H 720 V 1.8311e-4 L -4.9591e-5,6.1035e-5" /></clipPath><clipPath
       id="clipPath164"
       clipPathUnits="userSpaceOnUse"><path
         style="clip-rule:evenodd"
         id="path162"
         d="M 1.0729e-5,0 H 720.00001 V 540 H 1.0729e-5 Z" /></clipPath><clipPath
       id="clipPath176"
       clipPathUnits="userSpaceOnUse"><path
         style="clip-rule:evenodd"
         id="path174"
         d="M 1.0729e-5,0 H 720.00001 V 540 H 1.0729e-5 Z" /></clipPath><clipPath
       id="clipPath188"
       clipPathUnits="userSpaceOnUse"><path
         style="clip-rule:evenodd"
         id="path186"
         d="M -3.0518e-5,540 H 720 V -6.1035e-5 L -3.0518e-5,0" /></clipPath><clipPath
       id="clipPath198"
       clipPathUnits="userSpaceOnUse"><path
         style="clip-rule:evenodd"
         id="path196"
         d="M -3.0518e-5,540 H 720 V -6.1035e-5 L -3.0518e-5,0" /></clipPath><clipPath
       id="clipPath208"
       clipPathUnits="userSpaceOnUse"><path
         style="clip-rule:evenodd"
         id="path206"
         d="M -3.0518e-5,540 H 720 V 1.2207e-4 H -6.1035e-5" /></clipPath><clipPath
       id="clipPath218"
       clipPathUnits="userSpaceOnUse"><path
         style="clip-rule:evenodd"
         id="path216"
         d="M -6.1035e-5,540 H 720 V 0 H -9.1553e-5" /></clipPath><clipPath
       id="clipPath228"
       clipPathUnits="userSpaceOnUse"><path
         style="clip-rule:evenodd"
         id="path226"
         d="M -6.1035e-5,540 H 720 V 0 H -9.1553e-5" /></clipPath><clipPath
       id="clipPath238"
       clipPathUnits="userSpaceOnUse"><path
         style="clip-rule:evenodd"
         id="path236"
         d="M -1.5259e-4,540 H 720 V 1.8311e-4 H -1.8311e-4" /></clipPath><clipPath
       id="clipPath248"
       clipPathUnits="userSpaceOnUse"><path
         style="clip-rule:evenodd"
         id="path246"
         d="M -6.1035e-5,540 H 720 V 0 L -6.1035e-5,-6.1035e-5" /></clipPath><clipPath
       id="clipPath258"
       clipPathUnits="userSpaceOnUse"><path
         style="clip-rule:evenodd"
         id="path256"
         d="M -6.1035e-5,540 H 720 V 0 L -6.1035e-5,-6.1035e-5" /></clipPath><clipPath
       id="clipPath268"
       clipPathUnits="userSpaceOnUse"><path
         style="clip-rule:evenodd"
         id="path266"
         d="M -1.2207e-4,540 H 720 V 1.2207e-4 L -6.1035e-5,1.8311e-4" /></clipPath></defs><g
     transform="matrix(1.3333333,0,0,-1.3333333,0,720)"
     id="g10"><g
       id="g12"><g
         clip-path="url(#clipPath18)"
         id="g14"><path
           id="path20"
           style="fill:#ffffff;fill-opacity:1;fill-rule:evenodd;stroke:none"
           d="M 0,6.1035e-5 H 720 V 540.00006 H 0 Z" /></g></g><path
       id="path22"
       style="fill:#f2f2f2;fill-opacity:1;fill-rule:evenodd;stroke:none"
       d="m 7.14,225 c 0,86.39 159.38,156.42 355.98,156.42 C 559.72,381.42 719.1,311.39 719.1,225 719.1,138.61 559.72,68.58 363.12,68.58 166.52,68.58 7.14,138.61 7.14,225 Z" /><g
       id="g24"><g
         clip-path="url(#clipPath30)"
         id="g26"><path
           id="path32"
           style="fill:none;stroke:#d99694;stroke-width:3.72000003;stroke-linecap:butt;stroke-linejoin:round;stroke-miterlimit:10;stroke-dasharray:none;stroke-opacity:1"
           d="m 7.14,225 c 0,86.39 159.38,156.42 355.98,156.42 C 559.72,381.42 719.1,311.39 719.1,225 719.1,138.61 559.72,68.58 363.12,68.58 166.52,68.58 7.14,138.61 7.14,225 Z" /></g></g><g
       id="g34"><g
         clip-path="url(#clipPath40)"
         id="g36"><path
           id="path42"
           style="fill:#ffffff;fill-opacity:1;fill-rule:evenodd;stroke:none"
           d="m 155.93,403.86 8.24,-42.35 C 168.38,339.9 189.3,325.79 210.91,330 l 17.3,3.36 c 21.61,4.21 35.72,25.13 31.51,46.74 l -4.05,20.84 9.16,1.79 -16.29,19.14 -7.93,-23.86 9.16,1.79 4.06,-20.85 c 3.57,-18.35 -8.41,-36.12 -26.77,-39.69 l -17.3,-3.37 c -18.35,-3.57 -36.12,8.41 -39.69,26.77 L 161.83,405 Z" /></g></g><g
       id="g44"><g
         clip-path="url(#clipPath50)"
         id="g46"><path
           id="path52"
           style="fill:none;stroke:#000000;stroke-width:0.75;stroke-linecap:butt;stroke-linejoin:round;stroke-miterlimit:10;stroke-dasharray:none;stroke-opacity:1"
           d="m 155.93,403.86 8.24,-42.35 C 168.38,339.9 189.3,325.79 210.91,330 l 17.3,3.36 c 21.61,4.21 35.72,25.13 31.51,46.74 l -4.05,20.84 9.16,1.79 -16.29,19.14 -7.93,-23.86 9.16,1.79 4.06,-20.85 c 3.57,-18.35 -8.41,-36.12 -26.77,-39.69 l -17.3,-3.37 c -18.35,-3.57 -36.12,8.41 -39.69,26.77 L 161.83,405 Z" /></g></g><g
       id="g54"><g
         clip-path="url(#clipPath60)"
         id="g56"><path
           id="path62"
           style="fill:#000000;fill-opacity:1;fill-rule:nonzero;stroke:none"
           d="m 186.3,369.8 1.56,0.06 c 0.02,-1.09 -0.27,-1.99 -0.86,-2.7 -0.59,-0.72 -1.38,-1.16 -2.39,-1.34 -1.26,-0.21 -2.34,0.03 -3.24,0.72 -0.91,0.69 -1.49,1.81 -1.76,3.34 -0.17,1 -0.15,1.89 0.05,2.69 0.2,0.81 0.61,1.45 1.22,1.94 0.61,0.49 1.31,0.8 2.1,0.93 1,0.17 1.86,0.06 2.58,-0.34 0.72,-0.39 1.25,-1.04 1.59,-1.94 l -1.48,-0.49 c -0.25,0.59 -0.58,1.01 -1,1.26 -0.42,0.25 -0.89,0.33 -1.41,0.24 -0.79,-0.13 -1.38,-0.52 -1.77,-1.17 -0.4,-0.65 -0.49,-1.58 -0.28,-2.8 0.21,-1.24 0.6,-2.09 1.17,-2.57 0.57,-0.48 1.23,-0.66 2,-0.53 0.61,0.11 1.09,0.38 1.43,0.83 0.35,0.44 0.51,1.07 0.49,1.87 z m 3.42,-2.89 -1.57,9.2 1.4,0.24 0.24,-1.39 c 0.25,0.71 0.51,1.2 0.77,1.46 0.27,0.26 0.59,0.42 0.95,0.48 0.53,0.09 1.09,0.02 1.69,-0.23 l -0.29,-1.53 c -0.42,0.16 -0.82,0.2 -1.2,0.14 -0.34,-0.06 -0.63,-0.22 -0.87,-0.47 -0.23,-0.25 -0.38,-0.57 -0.43,-0.95 -0.08,-0.58 -0.06,-1.21 0.05,-1.86 l 0.82,-4.82 z m 11.73,5.06 1.64,0.07 c -0.09,-0.98 -0.44,-1.79 -1.04,-2.43 -0.59,-0.64 -1.43,-1.05 -2.5,-1.23 -1.34,-0.23 -2.48,0 -3.41,0.7 -0.93,0.69 -1.52,1.78 -1.78,3.28 -0.26,1.55 -0.07,2.82 0.58,3.81 0.65,0.99 1.61,1.59 2.88,1.81 1.23,0.21 2.31,-0.03 3.23,-0.74 0.93,-0.7 1.52,-1.81 1.78,-3.33 0.01,-0.1 0.03,-0.23 0.06,-0.42 l -6.86,-1.17 c 0.23,-1 0.65,-1.73 1.25,-2.18 0.61,-0.45 1.3,-0.61 2.06,-0.48 0.58,0.1 1.04,0.34 1.39,0.71 0.35,0.36 0.59,0.9 0.72,1.6 z m -5.55,1.64 5.13,0.88 c -0.2,0.76 -0.49,1.31 -0.88,1.64 -0.6,0.52 -1.3,0.71 -2.09,0.57 -0.72,-0.12 -1.28,-0.46 -1.68,-1.03 -0.41,-0.56 -0.57,-1.25 -0.48,-2.06 z m 15.38,-1.84 c -0.49,-0.59 -0.99,-1.03 -1.49,-1.33 -0.5,-0.29 -1.05,-0.49 -1.67,-0.59 -1.01,-0.18 -1.83,-0.06 -2.45,0.34 -0.63,0.4 -1.01,0.98 -1.14,1.75 -0.08,0.45 -0.05,0.88 0.1,1.29 0.14,0.41 0.35,0.75 0.65,1.03 0.29,0.29 0.64,0.52 1.03,0.71 0.29,0.13 0.74,0.29 1.35,0.47 1.23,0.36 2.13,0.7 2.69,1.01 -0.03,0.22 -0.05,0.35 -0.06,0.41 -0.11,0.63 -0.34,1.06 -0.68,1.27 -0.45,0.28 -1.08,0.36 -1.86,0.22 -0.74,-0.12 -1.25,-0.35 -1.56,-0.66 -0.31,-0.32 -0.49,-0.82 -0.54,-1.5 l -1.56,-0.05 c 0.02,0.67 0.16,1.24 0.41,1.7 0.25,0.45 0.66,0.84 1.22,1.16 0.56,0.32 1.24,0.55 2.03,0.68 0.79,0.13 1.44,0.15 1.96,0.05 0.53,-0.1 0.93,-0.27 1.21,-0.51 0.28,-0.24 0.5,-0.57 0.66,-0.98 0.1,-0.26 0.21,-0.73 0.33,-1.42 l 0.35,-2.08 c 0.25,-1.45 0.44,-2.36 0.57,-2.74 0.14,-0.37 0.33,-0.72 0.59,-1.03 l -1.63,-0.28 c -0.22,0.29 -0.39,0.65 -0.51,1.08 z m -0.72,3.46 c -0.53,-0.33 -1.35,-0.67 -2.45,-1.03 -0.63,-0.2 -1.06,-0.38 -1.31,-0.54 -0.24,-0.16 -0.42,-0.37 -0.53,-0.61 -0.1,-0.25 -0.13,-0.51 -0.09,-0.78 0.08,-0.42 0.29,-0.74 0.65,-0.96 0.37,-0.22 0.85,-0.28 1.46,-0.18 0.6,0.1 1.11,0.33 1.53,0.67 0.43,0.34 0.71,0.76 0.85,1.26 0.11,0.38 0.1,0.91 -0.02,1.6 z m 7.9,-1.97 0.46,-1.34 c -0.43,-0.16 -0.81,-0.28 -1.16,-0.34 -0.56,-0.09 -1.02,-0.08 -1.36,0.05 -0.34,0.12 -0.6,0.32 -0.78,0.59 -0.18,0.27 -0.35,0.87 -0.51,1.81 l -0.9,5.29 -1.14,-0.19 -0.21,1.21 1.14,0.2 -0.39,2.27 1.39,1.2 0.55,-3.21 1.57,0.27 0.21,-1.21 -1.57,-0.27 0.92,-5.38 c 0.08,-0.45 0.15,-0.73 0.23,-0.85 0.08,-0.11 0.18,-0.2 0.32,-0.25 0.14,-0.06 0.32,-0.06 0.55,-0.02 0.18,0.03 0.4,0.08 0.68,0.17 z m 0.43,3.38 c -0.29,1.7 -0.03,3.04 0.77,4.03 0.68,0.81 1.58,1.32 2.72,1.51 1.27,0.22 2.37,-0.02 3.32,-0.71 0.94,-0.69 1.54,-1.77 1.79,-3.23 0.2,-1.18 0.18,-2.14 -0.06,-2.88 -0.24,-0.74 -0.66,-1.36 -1.28,-1.85 -0.61,-0.49 -1.32,-0.81 -2.12,-0.94 -1.29,-0.22 -2.4,0.01 -3.34,0.7 -0.93,0.69 -1.53,1.81 -1.8,3.37 z m 1.6,0.27 c 0.2,-1.18 0.61,-2.02 1.23,-2.51 0.61,-0.5 1.31,-0.68 2.09,-0.55 0.77,0.13 1.37,0.54 1.78,1.21 0.41,0.68 0.52,1.62 0.31,2.83 -0.2,1.14 -0.6,1.95 -1.22,2.45 -0.62,0.5 -1.31,0.68 -2.08,0.55 -0.78,-0.13 -1.37,-0.53 -1.79,-1.2 -0.41,-0.68 -0.52,-1.6 -0.32,-2.78 z m 9.57,-3.1 -1.58,9.2 1.41,0.24 0.24,-1.39 c 0.24,0.71 0.5,1.2 0.77,1.46 0.26,0.26 0.58,0.42 0.94,0.48 0.53,0.09 1.09,0.02 1.69,-0.23 l -0.29,-1.54 c -0.42,0.16 -0.82,0.21 -1.2,0.15 -0.34,-0.06 -0.63,-0.22 -0.86,-0.47 -0.24,-0.25 -0.38,-0.57 -0.44,-0.95 -0.08,-0.58 -0.06,-1.21 0.05,-1.86 l 0.83,-4.82 z m 4.84,3.66 1.5,0.5 c 0.19,-0.6 0.51,-1.03 0.96,-1.29 0.45,-0.27 1.04,-0.34 1.75,-0.21 0.71,0.12 1.22,0.36 1.52,0.71 0.29,0.35 0.41,0.72 0.34,1.11 -0.06,0.35 -0.26,0.61 -0.6,0.75 -0.24,0.11 -0.8,0.19 -1.69,0.26 -1.19,0.09 -2.02,0.21 -2.5,0.34 -0.48,0.14 -0.87,0.37 -1.16,0.71 -0.29,0.33 -0.47,0.72 -0.55,1.17 -0.07,0.41 -0.04,0.81 0.09,1.19 0.12,0.38 0.33,0.72 0.61,1 0.22,0.22 0.52,0.43 0.92,0.63 0.4,0.19 0.83,0.33 1.31,0.41 0.73,0.13 1.38,0.13 1.96,0.02 0.58,-0.12 1.03,-0.33 1.35,-0.64 0.32,-0.31 0.58,-0.76 0.78,-1.33 L 240,382.33 c -0.15,0.46 -0.41,0.79 -0.79,1 -0.38,0.21 -0.87,0.26 -1.47,0.16 -0.72,-0.12 -1.21,-0.33 -1.48,-0.62 -0.26,-0.29 -0.37,-0.59 -0.31,-0.91 0.03,-0.2 0.12,-0.37 0.28,-0.51 0.16,-0.15 0.38,-0.25 0.67,-0.31 0.16,-0.04 0.65,-0.09 1.44,-0.17 1.16,-0.1 1.97,-0.21 2.44,-0.33 0.46,-0.11 0.85,-0.32 1.16,-0.64 0.31,-0.31 0.51,-0.74 0.6,-1.27 0.09,-0.52 0.03,-1.03 -0.2,-1.55 -0.22,-0.51 -0.6,-0.94 -1.13,-1.29 -0.53,-0.34 -1.15,-0.58 -1.88,-0.7 -1.19,-0.21 -2.15,-0.12 -2.86,0.27 -0.71,0.39 -1.23,1.06 -1.57,2.01 z" /></g></g><g
       id="g64"><g
         clip-path="url(#clipPath70)"
         id="g66"><text
           id="text74"
           style="font-variant:normal;font-weight:normal;font-size:36px;font-family:Helvetica;-inkscape-font-specification:Helvetica;writing-mode:lr-tb;fill:#000000;fill-opacity:1;fill-rule:nonzero;stroke:none"
           transform="matrix(1,0,0,-1,93.024,207.7)"><tspan
             id="tspan72"
             y="0"
             x="0 7.9920001 37.98 57.995998 66.096001 86.112 116.1 136.116 156.132 166.14 186.15601">implementer</tspan></text>
</g></g><g
       id="g76"><g
         clip-path="url(#clipPath82)"
         id="g78"><text
           id="text86"
           style="font-variant:normal;font-weight:normal;font-size:36.02399826px;font-family:Helvetica;-inkscape-font-specification:Helvetica;writing-mode:lr-tb;fill:#558ed5;fill-opacity:1;fill-rule:nonzero;stroke:none"
           transform="matrix(1,0,0,-1,244.32,161.09)"><tspan
             id="tspan84"
             y="0"
             x="0 20.029345 32.025337 40.022663 58.034664 78.172081 88.186752">private</tspan></text>
</g></g><g
       id="g88"><g
         clip-path="url(#clipPath94)"
         id="g90"><text
           id="text98"
           style="font-variant:normal;font-weight:normal;font-size:36.02399826px;font-family:Helvetica;-inkscape-font-specification:Helvetica;writing-mode:lr-tb;fill:#000000;fill-opacity:1;fill-rule:nonzero;stroke:none"
           transform="matrix(1,0,0,-1,385.82,124.32)"><tspan
             id="tspan96"
             y="0"
             x="0 11.995992 32.025337 52.05468 64.050674 84.080017 102.09202 122.12136 142.15071 152.16537 172.19472 182.2094 190.20673 210.23607">representation</tspan></text>
</g></g><g
       id="g100"><g
         clip-path="url(#clipPath106)"
         id="g102"><text
           id="text110"
           style="font-variant:normal;font-weight:normal;font-size:32.06399918px;font-family:Helvetica;-inkscape-font-specification:Helvetica;writing-mode:lr-tb;fill:#000000;fill-opacity:1;fill-rule:nonzero;stroke:none"
           transform="matrix(1,0,0,-1,14.256,420.1)"><tspan
             id="tspan108"
             y="0"
             x="0 16.032 23.150208 30.268415 48.096001 65.763268">client</tspan></text>
</g></g><g
       id="g112"><g
         clip-path="url(#clipPath118)"
         id="g114"><text
           id="text122"
           style="font-variant:normal;font-weight:normal;font-size:32.04000092px;font-family:Helvetica;-inkscape-font-specification:Helvetica;writing-mode:lr-tb;fill:#558ed5;fill-opacity:1;fill-rule:nonzero;stroke:none"
           transform="matrix(1,0,0,-1,57.36,475.97)"><tspan
             id="tspan120"
             y="0"
             x="0 17.81424 35.53236 53.3466 60.45948 67.444199">public</tspan></text>
</g></g><g
       id="g124"><g
         clip-path="url(#clipPath130)"
         id="g126"><text
           id="text134"
           style="font-variant:normal;font-weight:normal;font-size:32.04000092px;font-family:Helvetica;-inkscape-font-specification:Helvetica;writing-mode:lr-tb;fill:#000000;fill-opacity:1;fill-rule:nonzero;stroke:none"
           transform="matrix(1,0,0,-1,166.22,512.42)"><tspan
             id="tspan132"
             y="0"
             x="0 17.81424 35.628479 51.648479 60.555599 71.224922 89.039162 105.05916 113.96628 121.07916 138.8934">abstraction</tspan></text>
</g></g><g
       id="g136"><g
         clip-path="url(#clipPath142)"
         id="g138"><path
           id="path144"
           style="fill:#d99694;fill-opacity:1;fill-rule:nonzero;stroke:none"
           d="m 9.1399,282.64 1.5321,1.45 c 0.57,-0.62 1.202,-0.96 1.896,-1.02 0.693,-0.07 1.435,0.17 2.227,0.72 0.798,0.55 1.278,1.12 1.44,1.71 0.162,0.59 0.093,1.1 -0.209,1.54 -0.27,0.39 -0.653,0.59 -1.149,0.58 -0.345,-0.01 -1.072,-0.23 -2.182,-0.64 -1.495,-0.55 -2.57,-0.88 -3.2239,-0.99 -0.654,-0.1 -1.251,-0.04 -1.7909,0.2 -0.54,0.24 -0.9828,0.62 -1.3285,1.12 -0.3146,0.45 -0.5015,0.95 -0.5605,1.48 -0.059,0.54 0.003,1.06 0.1861,1.56 0.1328,0.39 0.3848,0.81 0.756,1.27 0.3712,0.46 0.8238,0.87 1.3578,1.24 0.8042,0.55 1.5901,0.92 2.3579,1.11 0.767,0.19 1.432,0.18 1.994,-0.01 0.562,-0.2 1.126,-0.59 1.692,-1.18 l -1.539,-1.4 c -0.441,0.48 -0.948,0.73 -1.522,0.77 -0.573,0.05 -1.1981,-0.17 -1.8736,-0.63 -0.7978,-0.55 -1.2764,-1.08 -1.4357,-1.57 -0.1593,-0.5 -0.1171,-0.93 0.1267,-1.28 0.1551,-0.23 0.3654,-0.38 0.6311,-0.47 0.27,-0.08 0.5984,-0.09 0.985,0 0.218,0.06 0.8315,0.26 1.8405,0.61 1.455,0.52 2.497,0.84 3.127,0.97 0.63,0.12 1.22,0.08 1.772,-0.13 0.551,-0.2 1.031,-0.6 1.438,-1.2 0.399,-0.57 0.606,-1.24 0.62,-1.98 0.015,-0.74 -0.2,-1.48 -0.644,-2.19 -0.444,-0.72 -1.069,-1.36 -1.873,-1.91 -1.332,-0.92 -2.537,-1.34 -3.616,-1.27 -1.08,0.07 -2.09,0.59 -3.0321,1.54 z m 15.3901,0.3 -9.765,14.18 1.583,1.09 0.917,-1.34 c 0.014,0.78 0.167,1.46 0.457,2.05 0.29,0.58 0.77,1.1 1.439,1.56 0.875,0.61 1.802,0.91 2.781,0.92 0.98,0.01 1.922,-0.27 2.828,-0.86 0.906,-0.58 1.696,-1.37 2.37,-2.34 0.722,-1.05 1.184,-2.13 1.386,-3.22 0.202,-1.1 0.098,-2.12 -0.311,-3.07 -0.409,-0.94 -1.01,-1.68 -1.801,-2.22 -0.579,-0.4 -1.183,-0.64 -1.811,-0.71 -0.629,-0.07 -1.219,-0.03 -1.772,0.14 l 3.436,-4.99 z m -4.622,10.08 c 0.908,-1.32 1.847,-2.11 2.815,-2.38 0.968,-0.26 1.832,-0.13 2.591,0.39 0.772,0.54 1.209,1.32 1.309,2.35 0.1,1.03 -0.322,2.23 -1.266,3.6 -0.899,1.31 -1.841,2.1 -2.826,2.38 -0.985,0.28 -1.851,0.16 -2.597,-0.35 -0.74,-0.51 -1.156,-1.31 -1.249,-2.39 -0.093,-1.08 0.314,-2.29 1.223,-3.6 z m 17.629,9.53 1.948,1.02 c 0.439,-1.24 0.476,-2.42 0.109,-3.53 -0.367,-1.1 -1.146,-2.07 -2.336,-2.89 -1.499,-1.03 -3.006,-1.39 -4.52,-1.07 -1.514,0.32 -2.845,1.31 -3.993,2.98 -1.187,1.72 -1.665,3.37 -1.433,4.93 0.232,1.57 1.055,2.84 2.471,3.81 1.37,0.94 2.811,1.25 4.322,0.91 1.512,-0.33 2.85,-1.34 4.015,-3.04 0.071,-0.1 0.174,-0.26 0.31,-0.47 l -7.644,-5.26 c 0.84,-1.08 1.752,-1.72 2.737,-1.93 0.985,-0.2 1.905,-0.01 2.761,0.58 0.637,0.44 1.065,0.98 1.285,1.62 0.22,0.65 0.209,1.43 -0.032,2.34 z m -7.638,-1.12 5.723,3.95 c -0.671,0.81 -1.335,1.3 -1.992,1.48 -1.015,0.29 -1.962,0.13 -2.844,-0.47 -0.798,-0.55 -1.285,-1.28 -1.46,-2.19 -0.176,-0.91 0.015,-1.83 0.573,-2.77 z m 17.967,8.91 1.861,0.95 c 0.625,-1.3 0.782,-2.55 0.472,-3.75 -0.311,-1.19 -1.025,-2.18 -2.145,-2.95 -1.403,-0.97 -2.846,-1.28 -4.33,-0.95 -1.484,0.33 -2.815,1.35 -3.994,3.06 -0.762,1.1 -1.246,2.2 -1.451,3.28 -0.205,1.08 -0.075,2.09 0.388,3.02 0.464,0.93 1.137,1.7 2.018,2.31 1.113,0.77 2.217,1.11 3.313,1.04 1.095,-0.08 2.1,-0.57 3.013,-1.46 l -1.51,-1.43 c -0.635,0.58 -1.276,0.9 -1.924,0.97 -0.648,0.06 -1.262,-0.1 -1.841,-0.5 -0.875,-0.6 -1.37,-1.41 -1.484,-2.41 -0.115,-1.01 0.295,-2.19 1.23,-3.54 0.948,-1.38 1.901,-2.2 2.859,-2.46 0.957,-0.26 1.861,-0.1 2.71,0.49 0.682,0.47 1.107,1.07 1.276,1.8 0.169,0.73 0.015,1.58 -0.461,2.53 z m -2.579,10.6 -1.376,2 1.737,1.2 1.376,-2 z m 8.369,-12.15 -7.059,10.25 1.737,1.2 7.059,-10.25 z m 4.754,3.28 -6.129,8.89 -1.535,-1.05 -0.93,1.35 1.534,1.05 -0.751,1.09 c -0.474,0.69 -0.765,1.25 -0.874,1.67 -0.142,0.56 -0.1,1.13 0.129,1.7 0.229,0.57 0.723,1.12 1.482,1.64 0.489,0.34 1.069,0.65 1.741,0.94 l 0.783,-1.69 c -0.405,-0.19 -0.768,-0.39 -1.09,-0.61 -0.527,-0.36 -0.823,-0.73 -0.886,-1.11 -0.064,-0.38 0.117,-0.87 0.542,-1.49 l 0.652,-0.95 1.997,1.38 0.931,-1.35 -1.998,-1.38 6.129,-8.89 z m -3.24,15.68 -1.376,2 1.737,1.19 1.376,-2 z m 8.369,-12.15 -7.06,10.25 1.737,1.19 7.06,-10.25 z m 8.441,11.35 1.861,0.95 c 0.624,-1.3 0.781,-2.55 0.471,-3.75 -0.31,-1.2 -1.025,-2.18 -2.145,-2.95 -1.402,-0.97 -2.845,-1.28 -4.329,-0.95 -1.484,0.32 -2.816,1.35 -3.995,3.06 -0.762,1.1 -1.245,2.2 -1.45,3.28 -0.205,1.08 -0.076,2.09 0.388,3.02 0.463,0.93 1.136,1.7 2.017,2.31 1.114,0.77 2.218,1.11 3.313,1.04 1.096,-0.08 2.1,-0.57 3.013,-1.47 l -1.509,-1.42 c -0.635,0.58 -1.277,0.9 -1.925,0.97 -0.648,0.06 -1.261,-0.1 -1.84,-0.5 -0.875,-0.61 -1.37,-1.41 -1.485,-2.41 -0.115,-1.01 0.295,-2.19 1.231,-3.55 0.948,-1.37 1.901,-2.19 2.858,-2.45 0.958,-0.26 1.861,-0.1 2.71,0.48 0.682,0.47 1.108,1.08 1.277,1.81 0.168,0.73 0.015,1.57 -0.461,2.53 z m 11.597,4.31 c -0.266,-0.99 -0.62,-1.8 -1.06,-2.43 -0.44,-0.64 -1.001,-1.19 -1.683,-1.66 -1.126,-0.78 -2.181,-1.1 -3.164,-0.96 -0.984,0.13 -1.771,0.62 -2.36,1.48 -0.346,0.5 -0.547,1.04 -0.605,1.61 -0.057,0.57 0.013,1.11 0.21,1.62 0.197,0.5 0.483,0.98 0.857,1.43 0.279,0.32 0.734,0.76 1.365,1.32 1.287,1.14 2.183,2.05 2.686,2.73 -0.158,0.25 -0.259,0.4 -0.303,0.47 -0.487,0.7 -0.995,1.09 -1.522,1.15 -0.715,0.09 -1.509,-0.17 -2.384,-0.77 -0.817,-0.56 -1.322,-1.12 -1.514,-1.68 -0.192,-0.55 -0.131,-1.26 0.183,-2.11 l -1.858,-0.94 c -0.346,0.83 -0.497,1.59 -0.451,2.29 0.046,0.69 0.321,1.38 0.823,2.08 0.503,0.71 1.196,1.36 2.077,1.97 0.875,0.6 1.657,0.99 2.346,1.16 0.688,0.17 1.269,0.19 1.741,0.05 0.472,-0.13 0.924,-0.4 1.355,-0.81 0.262,-0.25 0.658,-0.77 1.19,-1.54 l 1.596,-2.32 c 1.112,-1.61 1.852,-2.61 2.221,-2.98 0.369,-0.38 0.798,-0.69 1.287,-0.93 l -1.815,-1.25 c -0.428,0.24 -0.834,0.58 -1.218,1.02 z m -2.817,3.78 c -0.453,-0.69 -1.248,-1.56 -2.385,-2.61 -0.643,-0.59 -1.069,-1.05 -1.276,-1.39 -0.207,-0.33 -0.306,-0.68 -0.296,-1.03 0.009,-0.36 0.118,-0.69 0.327,-1 0.319,-0.46 0.76,-0.72 1.323,-0.79 0.564,-0.07 1.183,0.13 1.859,0.6 0.669,0.46 1.163,1.01 1.483,1.66 0.319,0.66 0.426,1.32 0.321,2 -0.084,0.52 -0.39,1.16 -0.917,1.93 z m 10.692,2.08 1.308,-1.37 c -0.418,-0.44 -0.82,-0.79 -1.206,-1.05 -0.631,-0.44 -1.188,-0.68 -1.673,-0.72 -0.485,-0.04 -0.91,0.06 -1.275,0.29 -0.366,0.22 -0.907,0.86 -1.625,1.9 l -4.062,5.9 -1.274,-0.88 -0.93,1.35 1.273,0.88 -1.748,2.54 1.01,2.23 2.466,-3.58 1.747,1.2 0.93,-1.35 -1.746,-1.2 4.128,-6 c 0.341,-0.49 0.591,-0.79 0.749,-0.89 0.159,-0.1 0.336,-0.14 0.532,-0.13 0.196,0.01 0.423,0.11 0.68,0.28 0.193,0.14 0.432,0.33 0.716,0.6 z m -5.548,11.8 -1.376,2 1.737,1.19 1.376,-2 z m 8.369,-12.15 -7.059,10.25 1.737,1.19 7.06,-10.25 z m 0.163,7.67 c -1.308,1.89 -1.748,3.66 -1.322,5.3 0.358,1.37 1.171,2.49 2.439,3.36 1.409,0.97 2.878,1.3 4.409,1 1.528,-0.31 2.858,-1.28 3.978,-2.91 0.91,-1.31 1.42,-2.49 1.55,-3.52 0.12,-1.03 -0.05,-2.01 -0.52,-2.95 -0.46,-0.94 -1.14,-1.71 -2.04,-2.33 -1.43,-0.99 -2.91,-1.33 -4.429,-1.02 -1.518,0.31 -2.873,1.33 -4.065,3.07 z m 1.785,1.23 c 0.904,-1.32 1.867,-2.1 2.89,-2.36 1.019,-0.26 1.969,-0.09 2.839,0.51 0.86,0.59 1.35,1.41 1.47,2.46 0.12,1.06 -0.28,2.25 -1.21,3.6 -0.87,1.27 -1.82,2.03 -2.845,2.28 -1.026,0.26 -1.966,0.09 -2.822,-0.5 -0.869,-0.59 -1.365,-1.42 -1.49,-2.46 -0.125,-1.04 0.264,-2.22 1.168,-3.53 z m 13.359,1.64 -7.06,10.25 1.57,1.08 1,-1.46 c -0.02,1.65 0.68,2.96 2.1,3.94 0.62,0.42 1.26,0.7 1.93,0.84 0.67,0.13 1.26,0.11 1.77,-0.08 0.5,-0.18 0.98,-0.48 1.42,-0.91 0.29,-0.27 0.71,-0.82 1.26,-1.62 l 4.34,-6.3 -1.74,-1.2 -4.29,6.24 c -0.49,0.7 -0.92,1.19 -1.3,1.44 -0.37,0.26 -0.81,0.38 -1.29,0.35 -0.49,-0.03 -0.97,-0.2 -1.43,-0.52 -0.74,-0.51 -1.22,-1.19 -1.43,-2.03 -0.22,-0.84 0.13,-1.91 1.03,-3.22 l 3.86,-5.6 z" /></g></g><g
       id="g146"><g
         clip-path="url(#clipPath152)"
         id="g148"><path
           id="path154"
           style="fill:#d99694;fill-opacity:1;fill-rule:nonzero;stroke:none"
           d="m 52.313,272.9 -6.129,8.89 -1.534,-1.05 -0.931,1.35 1.535,1.05 -0.752,1.09 c -0.474,0.69 -0.765,1.25 -0.873,1.67 -0.143,0.56 -0.1,1.13 0.128,1.7 0.229,0.57 0.723,1.12 1.482,1.64 0.489,0.34 1.069,0.65 1.741,0.94 l 0.783,-1.69 c -0.404,-0.19 -0.768,-0.39 -1.089,-0.61 -0.528,-0.36 -0.823,-0.73 -0.887,-1.11 -0.064,-0.38 0.117,-0.87 0.543,-1.49 l 0.651,-0.95 1.998,1.38 0.93,-1.35 -1.997,-1.38 6.129,-8.89 z m -3.24,15.68 -1.376,2 1.737,1.19 1.376,-2 z m 8.369,-12.15 -7.06,10.25 1.738,1.19 7.059,-10.25 z m 4.319,2.97 -7.059,10.25 1.563,1.08 1.07,-1.55 c -0.101,1 -0.063,1.73 0.115,2.19 0.178,0.47 0.47,0.84 0.875,1.12 0.586,0.4 1.31,0.63 2.171,0.67 l 0.512,-2.02 c -0.597,-0.05 -1.108,-0.21 -1.533,-0.51 -0.38,-0.26 -0.642,-0.61 -0.787,-1.04 -0.145,-0.44 -0.142,-0.9 0.008,-1.4 0.233,-0.75 0.601,-1.49 1.107,-2.22 l 3.696,-5.37 z m 11.384,12.71 1.948,1.01 c 0.439,-1.24 0.475,-2.41 0.108,-3.52 -0.366,-1.11 -1.145,-2.07 -2.335,-2.89 -1.499,-1.03 -3.006,-1.39 -4.52,-1.07 -1.514,0.32 -2.845,1.31 -3.993,2.98 -1.188,1.72 -1.666,3.36 -1.434,4.93 0.232,1.56 1.056,2.83 2.472,3.81 1.37,0.94 2.811,1.24 4.322,0.91 1.511,-0.33 2.85,-1.35 4.015,-3.04 0.071,-0.1 0.174,-0.26 0.31,-0.47 l -7.644,-5.26 c 0.84,-1.09 1.752,-1.73 2.737,-1.93 0.985,-0.21 1.905,-0.01 2.761,0.58 0.637,0.43 1.065,0.98 1.285,1.62 0.22,0.65 0.209,1.43 -0.032,2.34 z m -7.638,-1.12 5.723,3.94 c -0.671,0.81 -1.335,1.31 -1.993,1.49 -1.014,0.29 -1.962,0.13 -2.843,-0.48 -0.798,-0.55 -1.285,-1.28 -1.461,-2.19 -0.176,-0.9 0.016,-1.83 0.574,-2.76 z m 15.756,1.85 -10.196,8.08 1.795,1.24 5.706,-4.79 2.124,-1.78 c -0.05,0.12 -0.358,0.95 -0.925,2.48 l -2.504,7.12 1.785,1.23 5.63,-4.89 1.861,-1.6 -0.774,2.38 -2.325,7.14 1.689,1.16 3.855,-12.46 -1.805,-1.24 -5.859,5.02 -1.598,1.47 3.356,-9.31 z m 18.157,14.37 c -0.267,-0.99 -0.62,-1.81 -1.06,-2.44 -0.44,-0.64 -1.001,-1.19 -1.683,-1.66 -1.126,-0.77 -2.181,-1.1 -3.165,-0.96 -0.984,0.13 -1.77,0.63 -2.359,1.48 -0.346,0.5 -0.548,1.04 -0.605,1.61 -0.058,0.58 0.012,1.11 0.209,1.62 0.198,0.51 0.483,0.98 0.858,1.43 0.279,0.33 0.734,0.77 1.365,1.32 1.287,1.14 2.182,2.05 2.686,2.74 -0.158,0.24 -0.259,0.39 -0.303,0.46 -0.488,0.7 -0.995,1.09 -1.523,1.15 -0.714,0.09 -1.509,-0.17 -2.384,-0.77 -0.817,-0.56 -1.321,-1.12 -1.514,-1.68 -0.192,-0.55 -0.13,-1.26 0.184,-2.11 l -1.858,-0.94 c -0.347,0.83 -0.497,1.6 -0.451,2.29 0.046,0.69 0.32,1.38 0.823,2.09 0.503,0.7 1.195,1.35 2.077,1.96 0.875,0.6 1.657,0.99 2.345,1.16 0.689,0.17 1.269,0.19 1.742,0.05 0.472,-0.13 0.924,-0.4 1.355,-0.81 0.261,-0.25 0.658,-0.77 1.19,-1.54 l 1.595,-2.31 c 1.116,-1.62 1.856,-2.61 2.226,-2.99 0.36,-0.38 0.79,-0.69 1.28,-0.93 l -1.81,-1.25 c -0.43,0.24 -0.836,0.58 -1.22,1.03 z m -2.817,3.78 c -0.453,-0.7 -1.249,-1.57 -2.386,-2.61 -0.643,-0.6 -1.068,-1.06 -1.275,-1.4 -0.208,-0.33 -0.307,-0.67 -0.297,-1.03 0.01,-0.36 0.119,-0.69 0.327,-0.99 0.319,-0.47 0.761,-0.73 1.324,-0.8 0.563,-0.07 1.183,0.13 1.858,0.6 0.669,0.46 1.164,1.01 1.483,1.67 0.32,0.65 0.427,1.31 0.321,1.99 -0.084,0.52 -0.389,1.16 -0.916,1.93 z m 7.927,-2.13 -9.742,14.15 1.738,1.2 9.744,-14.15 z m 4.35,3 -9.743,14.15 1.733,1.19 9.75,-14.14 z" /></g></g><path
       id="path156"
       style="fill:#fcf0a9;fill-opacity:1;fill-rule:evenodd;stroke:none"
       d="M 0,11.28 H 706.56 V 57.36 H 0 Z" /><g
       id="g158"><g
         clip-path="url(#clipPath164)"
         id="g160"><text
           id="text168"
           style="font-variant:normal;font-weight:normal;font-size:32.04000092px;font-family:Helvetica;-inkscape-font-specification:Helvetica;writing-mode:lr-tb;fill:#000000;fill-opacity:1;fill-rule:nonzero;stroke:none"
           transform="matrix(1,0,0,-1,7.2,22.512)"><tspan
             id="tspan166"
             y="0"
             x="0 17.81424 35.53236 44.43948 62.253719 79.939796 95.959801 104.86692 115.53624 133.35048 149.37048 158.2776 166.92841 184.74265 202.46075 211.36787 229.18211 237.86496 246.77208 262.79208 280.60632 298.42056 307.10339 314.21628 330.23627 339.1434 356.95764 374.67575 383.58289 390.69577 408.38184 426.19608 443.91422">an abstract data type is defined </tspan></text>
</g></g><g
       id="g170"><g
         clip-path="url(#clipPath176)"
         id="g172"><text
           id="text180"
           style="font-variant:normal;font-weight:normal;font-size:32.04000092px;font-family:Helvetica;-inkscape-font-specification:Helvetica;writing-mode:lr-tb;fill:#000000;fill-opacity:1;fill-rule:nonzero;stroke:none"
           transform="matrix(1,0,0,-1,460.03,22.512)"><tspan
             id="tspan178"
             y="0"
             x="0 17.81424 33.83424 42.613201 49.726082 58.633202 74.653198 83.560318 101.37456 119.06064 136.87488 147.5442 165.26231 174.16943 181.28232 198.9684 216.78264">by its operations</tspan></text>
</g></g><g
       id="g182"><g
         clip-path="url(#clipPath188)"
         id="g184"><path
           id="path190"
           style="fill:#ffffff;fill-opacity:1;fill-rule:evenodd;stroke:none"
           d="m 317.68,428.67 -0.11,-43.14 c -0.05,-22.01 17.75,-39.9 39.76,-39.96 l 17.63,-0.04 c 22.01,-0.05 39.9,17.75 39.95,39.76 l 0.06,21.23 9.33,-0.02 -12.28,21.94 -12.39,-21.88 9.33,-0.02 -0.05,-21.24 c -0.05,-18.69 -15.24,-33.81 -33.94,-33.76 l -17.62,0.04 c -18.7,0.05 -33.82,15.24 -33.77,33.94 l 0.11,43.14 z" /></g></g><g
       id="g192"><g
         clip-path="url(#clipPath198)"
         id="g194"><path
           id="path200"
           style="fill:none;stroke:#000000;stroke-width:0.75;stroke-linecap:butt;stroke-linejoin:round;stroke-miterlimit:10;stroke-dasharray:none;stroke-opacity:1"
           d="m 317.68,428.67 -0.11,-43.14 c -0.05,-22.01 17.75,-39.9 39.76,-39.96 l 17.63,-0.04 c 22.01,-0.05 39.9,17.75 39.95,39.76 l 0.06,21.23 9.33,-0.02 -12.28,21.94 -12.39,-21.88 9.33,-0.02 -0.05,-21.24 c -0.05,-18.69 -15.24,-33.81 -33.94,-33.76 l -17.62,0.04 c -18.7,0.05 -33.82,15.24 -33.77,33.94 l 0.11,43.14 z" /></g></g><g
       id="g202"><g
         clip-path="url(#clipPath208)"
         id="g204"><path
           id="path210"
           style="fill:#000000;fill-opacity:1;fill-rule:nonzero;stroke:none"
           d="m 327.3,390.97 c 0.04,1.73 0.55,3 1.53,3.81 0.82,0.67 1.81,0.99 2.96,0.96 1.29,-0.03 2.33,-0.48 3.12,-1.34 0.79,-0.86 1.17,-2.03 1.13,-3.52 -0.03,-1.2 -0.23,-2.14 -0.61,-2.82 -0.38,-0.68 -0.92,-1.2 -1.61,-1.56 -0.7,-0.36 -1.46,-0.53 -2.27,-0.51 -1.31,0.03 -2.35,0.47 -3.14,1.33 -0.78,0.86 -1.15,2.08 -1.11,3.65 z m 1.62,-0.04 c -0.03,-1.19 0.21,-2.09 0.72,-2.7 0.5,-0.61 1.15,-0.92 1.94,-0.94 0.79,-0.02 1.45,0.26 1.98,0.84 0.54,0.59 0.82,1.49 0.85,2.72 0.03,1.15 -0.21,2.03 -0.72,2.64 -0.51,0.61 -1.15,0.92 -1.93,0.94 -0.79,0.02 -1.45,-0.26 -1.99,-0.84 -0.54,-0.58 -0.82,-1.46 -0.85,-2.66 z m 10.26,-4.93 -1.47,0.04 0.33,12.88 1.58,-0.04 -0.11,-4.59 c 0.68,0.82 1.55,1.21 2.58,1.19 0.58,-0.02 1.12,-0.15 1.63,-0.39 0.5,-0.24 0.92,-0.58 1.24,-1.01 0.32,-0.42 0.56,-0.94 0.74,-1.53 0.17,-0.6 0.25,-1.23 0.23,-1.91 -0.04,-1.6 -0.47,-2.82 -1.28,-3.68 -0.81,-0.85 -1.77,-1.26 -2.88,-1.23 -1.1,0.03 -1.95,0.51 -2.56,1.44 z m 0.1,4.74 c -0.02,-1.12 0.11,-1.93 0.4,-2.44 0.48,-0.82 1.14,-1.25 1.99,-1.27 0.69,-0.02 1.3,0.27 1.82,0.86 0.51,0.58 0.79,1.47 0.82,2.66 0.03,1.22 -0.19,2.13 -0.66,2.72 -0.47,0.59 -1.04,0.89 -1.73,0.91 -0.69,0.02 -1.3,-0.27 -1.81,-0.85 -0.52,-0.59 -0.8,-1.45 -0.83,-2.59 z m 7.84,-2.15 1.57,0.21 c 0.07,-0.63 0.3,-1.12 0.7,-1.46 0.39,-0.35 0.95,-0.53 1.67,-0.55 0.72,-0.01 1.26,0.12 1.62,0.41 0.36,0.28 0.55,0.63 0.56,1.02 0.01,0.36 -0.14,0.65 -0.45,0.86 -0.21,0.15 -0.74,0.34 -1.6,0.58 -1.15,0.32 -1.95,0.59 -2.39,0.82 -0.45,0.22 -0.78,0.53 -1,0.91 -0.22,0.38 -0.33,0.8 -0.32,1.26 0.02,0.42 0.12,0.8 0.32,1.15 0.2,0.35 0.47,0.64 0.8,0.86 0.25,0.18 0.59,0.32 1.02,0.44 0.42,0.11 0.88,0.17 1.37,0.15 0.73,-0.01 1.37,-0.14 1.92,-0.36 0.55,-0.23 0.95,-0.52 1.2,-0.89 0.26,-0.37 0.43,-0.85 0.51,-1.46 l -1.55,-0.17 c -0.06,0.48 -0.25,0.86 -0.58,1.14 -0.33,0.28 -0.81,0.42 -1.42,0.44 -0.73,0.02 -1.25,-0.09 -1.56,-0.32 -0.32,-0.23 -0.48,-0.51 -0.49,-0.83 -0.01,-0.21 0.05,-0.39 0.18,-0.56 0.12,-0.17 0.32,-0.32 0.59,-0.44 0.16,-0.06 0.62,-0.21 1.39,-0.44 1.11,-0.32 1.89,-0.59 2.32,-0.79 0.44,-0.2 0.78,-0.49 1.02,-0.86 0.25,-0.37 0.36,-0.82 0.35,-1.36 -0.02,-0.53 -0.18,-1.02 -0.5,-1.48 -0.32,-0.45 -0.77,-0.8 -1.36,-1.04 -0.59,-0.24 -1.25,-0.35 -1.98,-0.34 -1.21,0.03 -2.13,0.31 -2.75,0.83 -0.62,0.52 -1.01,1.28 -1.16,2.27 z m 16.02,-0.18 1.63,-0.25 c -0.28,-0.95 -0.78,-1.67 -1.49,-2.18 -0.71,-0.51 -1.61,-0.76 -2.69,-0.73 -1.36,0.04 -2.44,0.48 -3.21,1.35 -0.78,0.86 -1.15,2.04 -1.11,3.56 0.04,1.57 0.47,2.78 1.3,3.63 0.83,0.84 1.89,1.25 3.18,1.22 1.25,-0.03 2.26,-0.48 3.02,-1.35 0.77,-0.87 1.14,-2.08 1.1,-3.62 0,-0.09 -0.01,-0.23 -0.02,-0.42 l -6.96,0.18 c 0.04,-1.03 0.31,-1.82 0.81,-2.38 0.51,-0.56 1.15,-0.85 1.93,-0.87 0.58,-0.01 1.08,0.13 1.5,0.42 0.42,0.3 0.75,0.77 1.01,1.44 z m -5.13,2.68 5.21,-0.13 c -0.05,0.79 -0.23,1.38 -0.55,1.78 -0.49,0.63 -1.13,0.95 -1.94,0.97 -0.72,0.01 -1.34,-0.21 -1.85,-0.69 -0.5,-0.47 -0.79,-1.11 -0.87,-1.93 z m 8.61,-5.78 0.23,9.33 1.43,-0.03 -0.04,-1.42 c 0.38,0.65 0.73,1.08 1.04,1.29 0.31,0.2 0.65,0.3 1.02,0.29 0.54,-0.02 1.07,-0.2 1.61,-0.55 l -0.58,-1.46 c -0.38,0.24 -0.76,0.36 -1.15,0.37 -0.34,0.01 -0.66,-0.08 -0.94,-0.28 -0.28,-0.21 -0.48,-0.49 -0.61,-0.86 -0.19,-0.55 -0.29,-1.17 -0.31,-1.83 l -0.12,-4.89 z m 8.6,-0.22 -3.31,9.42 1.67,-0.04 1.86,-5.64 c 0.2,-0.61 0.39,-1.24 0.55,-1.89 0.16,0.49 0.37,1.07 0.64,1.76 l 2.21,5.64 1.63,-0.04 -3.77,-9.24 z m 12.87,2.69 1.63,-0.25 c -0.28,-0.95 -0.78,-1.67 -1.49,-2.18 -0.71,-0.51 -1.6,-0.76 -2.69,-0.73 -1.36,0.04 -2.43,0.48 -3.21,1.34 -0.78,0.87 -1.15,2.05 -1.11,3.57 0.04,1.57 0.47,2.78 1.3,3.63 0.83,0.84 1.89,1.25 3.18,1.22 1.25,-0.03 2.26,-0.48 3.03,-1.35 0.77,-0.87 1.13,-2.08 1.09,-3.62 0,-0.09 -0.01,-0.23 -0.02,-0.42 l -6.96,0.18 c 0.04,-1.03 0.31,-1.82 0.81,-2.38 0.51,-0.56 1.16,-0.85 1.93,-0.87 0.58,-0.01 1.08,0.13 1.5,0.42 0.42,0.3 0.76,0.77 1.01,1.44 z m -5.12,2.68 5.21,-0.13 c -0.06,0.79 -0.24,1.38 -0.56,1.78 -0.49,0.62 -1.13,0.95 -1.93,0.97 -0.73,0.01 -1.35,-0.21 -1.85,-0.69 -0.51,-0.47 -0.8,-1.11 -0.87,-1.93 z m 8.6,-5.78 0.23,9.33 1.43,-0.03 -0.04,-1.42 c 0.38,0.65 0.73,1.08 1.04,1.29 0.31,0.2 0.66,0.3 1.02,0.29 0.54,-0.02 1.07,-0.2 1.62,-0.55 l -0.59,-1.46 c -0.38,0.24 -0.76,0.36 -1.15,0.37 -0.34,0.01 -0.65,-0.08 -0.94,-0.28 -0.28,-0.21 -0.48,-0.49 -0.61,-0.86 -0.19,-0.55 -0.29,-1.17 -0.31,-1.83 l -0.12,-4.89 z m 5.45,2.65 1.57,0.21 c 0.07,-0.63 0.31,-1.12 0.7,-1.46 0.39,-0.35 0.95,-0.53 1.67,-0.55 0.73,-0.01 1.27,0.12 1.63,0.41 0.36,0.28 0.54,0.63 0.55,1.02 0.01,0.36 -0.14,0.65 -0.44,0.86 -0.22,0.15 -0.75,0.34 -1.61,0.58 -1.15,0.32 -1.95,0.59 -2.39,0.82 -0.44,0.22 -0.77,0.53 -1,0.91 -0.22,0.38 -0.32,0.8 -0.31,1.26 0.01,0.42 0.11,0.8 0.31,1.15 0.2,0.35 0.47,0.64 0.8,0.86 0.25,0.18 0.59,0.32 1.02,0.44 0.43,0.11 0.89,0.17 1.37,0.15 0.73,-0.01 1.37,-0.14 1.92,-0.36 0.55,-0.23 0.95,-0.52 1.21,-0.89 0.25,-0.37 0.42,-0.85 0.5,-1.46 l -1.55,-0.17 c -0.05,0.48 -0.25,0.86 -0.58,1.14 -0.33,0.28 -0.8,0.42 -1.42,0.44 -0.72,0.02 -1.24,-0.09 -1.56,-0.32 -0.32,-0.23 -0.48,-0.51 -0.49,-0.83 0,-0.21 0.06,-0.39 0.18,-0.56 0.13,-0.17 0.32,-0.32 0.6,-0.44 0.15,-0.06 0.62,-0.21 1.38,-0.44 1.12,-0.32 1.89,-0.59 2.33,-0.79 0.43,-0.2 0.77,-0.49 1.02,-0.86 0.24,-0.37 0.35,-0.82 0.34,-1.36 -0.01,-0.53 -0.18,-1.02 -0.5,-1.48 -0.32,-0.45 -0.77,-0.8 -1.36,-1.04 -0.58,-0.24 -1.24,-0.36 -1.97,-0.34 -1.22,0.03 -2.13,0.31 -2.76,0.83 -0.62,0.52 -1.01,1.28 -1.16,2.27 z" /></g></g><g
       id="g212"><g
         clip-path="url(#clipPath218)"
         id="g214"><path
           id="path220"
           style="fill:#ffffff;fill-opacity:1;fill-rule:evenodd;stroke:none"
           d="m 477.92,422.29 -9.15,-42.16 c -4.67,-21.52 8.98,-42.74 30.49,-47.41 l 17.22,-3.74 c 21.51,-4.67 42.74,8.98 47.41,30.49 l 4.5,20.75 9.12,-1.98 -7.4,24.03 -16.7,-18.79 9.12,-1.98 -4.51,-20.75 c -3.97,-18.27 -21.99,-29.87 -40.26,-25.9 l -17.23,3.74 c -18.27,3.96 -29.86,21.99 -25.9,40.26 l 9.16,42.16 z" /></g></g><g
       id="g222"><g
         clip-path="url(#clipPath228)"
         id="g224"><path
           id="path230"
           style="fill:none;stroke:#000000;stroke-width:0.75;stroke-linecap:butt;stroke-linejoin:round;stroke-miterlimit:10;stroke-dasharray:none;stroke-opacity:1"
           d="m 477.92,422.29 -9.15,-42.16 c -4.67,-21.52 8.98,-42.74 30.49,-47.41 l 17.22,-3.74 c 21.51,-4.67 42.74,8.98 47.41,30.49 l 4.5,20.75 9.12,-1.98 -7.4,24.03 -16.7,-18.79 9.12,-1.98 -4.51,-20.75 c -3.97,-18.27 -21.99,-29.87 -40.26,-25.9 l -17.23,3.74 c -18.27,3.96 -29.86,21.99 -25.9,40.26 l 9.16,42.16 z" /></g></g><g
       id="g232"><g
         clip-path="url(#clipPath238)"
         id="g234"><path
           id="path240"
           style="fill:#000000;fill-opacity:1;fill-rule:nonzero;stroke:none"
           d="m 477.57,375.37 3.02,12.55 1.41,-0.33 -0.29,-1.18 c 0.44,0.38 0.9,0.63 1.37,0.77 0.47,0.13 1,0.12 1.6,-0.02 0.77,-0.19 1.41,-0.55 1.9,-1.1 0.5,-0.54 0.81,-1.21 0.94,-2.01 0.12,-0.8 0.08,-1.63 -0.13,-2.49 -0.22,-0.93 -0.59,-1.73 -1.1,-2.39 -0.51,-0.66 -1.13,-1.12 -1.86,-1.36 -0.73,-0.24 -1.45,-0.28 -2.15,-0.11 -0.51,0.12 -0.95,0.34 -1.3,0.66 -0.36,0.31 -0.63,0.67 -0.81,1.06 L 479.11,375 Z m 3.31,7.63 c -0.28,-1.17 -0.25,-2.09 0.09,-2.76 0.33,-0.67 0.84,-1.09 1.51,-1.25 0.68,-0.17 1.34,-0.02 1.97,0.44 0.62,0.46 1.08,1.3 1.37,2.51 0.28,1.16 0.25,2.08 -0.08,2.77 -0.34,0.69 -0.84,1.12 -1.5,1.28 -0.65,0.15 -1.31,-0.01 -1.96,-0.5 -0.65,-0.49 -1.12,-1.32 -1.4,-2.49 z m 7.19,-6.48 2.19,9.07 1.38,-0.33 -0.33,-1.38 c 0.51,0.56 0.94,0.91 1.29,1.04 0.35,0.13 0.7,0.16 1.06,0.07 0.52,-0.12 1,-0.42 1.46,-0.88 l -0.87,-1.29 c -0.33,0.31 -0.68,0.51 -1.05,0.6 -0.34,0.08 -0.66,0.05 -0.98,-0.08 -0.32,-0.14 -0.58,-0.38 -0.78,-0.71 -0.3,-0.5 -0.53,-1.08 -0.68,-1.73 l -1.15,-4.75 z m 6.37,3.26 c 0.41,1.69 1.18,2.82 2.3,3.4 0.95,0.48 1.98,0.59 3.1,0.32 1.25,-0.3 2.17,-0.95 2.76,-1.96 0.6,-1.01 0.72,-2.24 0.38,-3.68 -0.29,-1.16 -0.68,-2.04 -1.19,-2.63 -0.52,-0.58 -1.15,-0.98 -1.91,-1.19 -0.76,-0.21 -1.53,-0.21 -2.32,-0.02 -1.28,0.3 -2.2,0.96 -2.79,1.96 -0.59,1 -0.7,2.27 -0.33,3.8 z m 1.58,-0.38 c -0.28,-1.16 -0.23,-2.09 0.14,-2.79 0.36,-0.7 0.93,-1.14 1.7,-1.33 0.76,-0.18 1.47,-0.05 2.12,0.41 0.64,0.46 1.11,1.29 1.4,2.48 0.27,1.12 0.22,2.03 -0.15,2.73 -0.37,0.7 -0.94,1.15 -1.7,1.33 -0.76,0.18 -1.47,0.05 -2.12,-0.4 -0.64,-0.46 -1.11,-1.26 -1.39,-2.43 z m 13.47,-8.04 0.28,1.14 c -0.79,-0.76 -1.75,-1.01 -2.87,-0.74 -0.72,0.18 -1.34,0.54 -1.85,1.08 -0.51,0.55 -0.84,1.22 -1,2.01 -0.16,0.8 -0.13,1.66 0.09,2.59 0.22,0.9 0.57,1.69 1.05,2.35 0.48,0.67 1.07,1.12 1.77,1.37 0.69,0.25 1.42,0.28 2.16,0.1 0.55,-0.13 1.01,-0.36 1.38,-0.69 0.37,-0.34 0.65,-0.72 0.83,-1.16 l 1.08,4.5 1.53,-0.37 -3.02,-12.53 z m -3.77,5.7 c -0.28,-1.17 -0.24,-2.09 0.11,-2.79 0.35,-0.69 0.86,-1.12 1.52,-1.28 0.68,-0.16 1.31,-0.02 1.92,0.41 0.6,0.44 1.04,1.22 1.31,2.35 0.3,1.24 0.28,2.21 -0.06,2.91 -0.34,0.69 -0.86,1.13 -1.56,1.3 -0.68,0.16 -1.32,0.02 -1.91,-0.43 -0.6,-0.45 -1.04,-1.27 -1.33,-2.47 z m 13.51,-8.05 0.33,1.33 c -0.96,-0.85 -2.04,-1.14 -3.25,-0.84 -0.54,0.13 -1.02,0.35 -1.43,0.67 -0.42,0.31 -0.7,0.65 -0.85,1.02 -0.15,0.36 -0.21,0.78 -0.2,1.25 0.01,0.32 0.1,0.81 0.26,1.46 l 1.35,5.62 1.54,-0.37 -1.21,-5.03 c -0.2,-0.8 -0.3,-1.35 -0.3,-1.65 0,-0.42 0.13,-0.79 0.38,-1.1 0.26,-0.3 0.62,-0.51 1.08,-0.62 0.46,-0.11 0.92,-0.1 1.39,0.04 0.46,0.14 0.82,0.39 1.09,0.76 0.26,0.36 0.49,0.93 0.68,1.71 l 1.17,4.86 1.54,-0.37 -2.19,-9.07 z m 10.46,0.99 1.47,-0.56 c -0.42,-1 -1.04,-1.71 -1.86,-2.14 -0.82,-0.43 -1.73,-0.52 -2.72,-0.28 -1.24,0.3 -2.14,0.95 -2.7,1.94 -0.56,0.99 -0.66,2.25 -0.29,3.76 0.23,0.98 0.6,1.8 1.1,2.46 0.5,0.65 1.13,1.09 1.88,1.29 0.76,0.21 1.52,0.22 2.3,0.03 0.99,-0.23 1.73,-0.68 2.24,-1.33 0.51,-0.65 0.74,-1.45 0.69,-2.41 l -1.55,0.13 c 0.01,0.64 -0.13,1.16 -0.42,1.56 -0.29,0.39 -0.69,0.65 -1.2,0.77 -0.78,0.19 -1.47,0.06 -2.09,-0.37 -0.62,-0.44 -1.07,-1.26 -1.36,-2.46 -0.3,-1.22 -0.28,-2.17 0.06,-2.83 0.33,-0.67 0.87,-1.09 1.63,-1.27 0.6,-0.15 1.15,-0.08 1.64,0.19 0.5,0.27 0.89,0.78 1.18,1.52 z m 8.95,-2.58 1.54,-0.58 c -0.48,-0.86 -1.12,-1.47 -1.92,-1.82 -0.8,-0.35 -1.73,-0.4 -2.78,-0.15 -1.33,0.32 -2.28,0.99 -2.86,1.99 -0.58,1.01 -0.69,2.25 -0.34,3.72 0.37,1.53 1.05,2.62 2.04,3.27 0.99,0.66 2.11,0.83 3.36,0.53 1.21,-0.29 2.11,-0.95 2.68,-1.96 0.57,-1.01 0.67,-2.26 0.31,-3.76 -0.02,-0.09 -0.06,-0.23 -0.11,-0.41 l -6.77,1.63 c -0.18,-1.01 -0.08,-1.84 0.3,-2.49 0.38,-0.65 0.95,-1.07 1.7,-1.25 0.57,-0.14 1.08,-0.11 1.56,0.09 0.47,0.2 0.9,0.6 1.29,1.19 z m -4.45,3.71 5.06,-1.22 c 0.12,0.77 0.06,1.39 -0.17,1.85 -0.34,0.71 -0.91,1.16 -1.69,1.35 -0.7,0.17 -1.35,0.08 -1.95,-0.28 -0.59,-0.36 -1.01,-0.92 -1.25,-1.7 z m 7.19,-7.46 2.19,9.07 1.39,-0.33 -0.34,-1.38 c 0.51,0.56 0.94,0.91 1.29,1.04 0.35,0.13 0.7,0.16 1.06,0.07 0.52,-0.13 1.01,-0.42 1.46,-0.88 l -0.87,-1.3 c -0.32,0.32 -0.67,0.52 -1.05,0.61 -0.34,0.08 -0.66,0.05 -0.98,-0.09 -0.31,-0.13 -0.57,-0.37 -0.77,-0.7 -0.31,-0.51 -0.54,-1.08 -0.69,-1.73 l -1.15,-4.75 z m 5.89,1.44 1.58,-0.12 c -0.06,-0.63 0.06,-1.16 0.38,-1.58 0.31,-0.41 0.81,-0.71 1.52,-0.88 0.7,-0.17 1.26,-0.15 1.67,0.06 0.41,0.2 0.67,0.5 0.76,0.88 0.08,0.35 0,0.66 -0.26,0.93 -0.17,0.19 -0.66,0.49 -1.44,0.9 -1.06,0.56 -1.78,1 -2.17,1.31 -0.39,0.31 -0.65,0.68 -0.78,1.1 -0.14,0.42 -0.15,0.85 -0.05,1.3 0.1,0.4 0.28,0.76 0.55,1.06 0.27,0.3 0.59,0.52 0.96,0.67 0.29,0.12 0.65,0.19 1.09,0.21 0.44,0.03 0.9,-0.02 1.37,-0.13 0.72,-0.17 1.32,-0.43 1.8,-0.76 0.49,-0.34 0.82,-0.71 1,-1.12 0.17,-0.41 0.23,-0.93 0.19,-1.54 l -1.56,0.16 c 0.05,0.49 -0.06,0.9 -0.33,1.24 -0.26,0.34 -0.69,0.58 -1.29,0.73 -0.71,0.17 -1.24,0.17 -1.6,0.01 -0.36,-0.16 -0.57,-0.4 -0.65,-0.71 -0.05,-0.2 -0.03,-0.39 0.06,-0.58 0.09,-0.2 0.25,-0.38 0.49,-0.56 0.14,-0.09 0.56,-0.33 1.27,-0.72 1.01,-0.55 1.71,-0.97 2.1,-1.26 0.39,-0.29 0.66,-0.64 0.82,-1.05 0.16,-0.41 0.17,-0.88 0.05,-1.4 -0.13,-0.52 -0.39,-0.96 -0.8,-1.34 -0.41,-0.39 -0.92,-0.63 -1.55,-0.74 -0.62,-0.12 -1.29,-0.09 -2,0.09 -1.18,0.28 -2.02,0.74 -2.52,1.38 -0.5,0.64 -0.72,1.46 -0.66,2.46 z" /></g></g><g
       id="g242"><g
         clip-path="url(#clipPath248)"
         id="g244"><path
           id="path250"
           style="fill:#ffffff;fill-opacity:1;fill-rule:evenodd;stroke:none"
           d="m 633.5,381.36 -21.61,-37.34 c -11.03,-19.06 -4.52,-43.44 14.53,-54.47 l 15.26,-8.82 c 19.05,-11.03 43.43,-4.52 54.46,14.53 l 10.63,18.38 8.08,-4.67 0.3,25.14 -21.65,-12.79 8.08,-4.67 -10.64,-18.38 c -9.36,-16.18 -30.07,-21.71 -46.25,-12.34 l -15.26,8.82 c -16.18,9.37 -21.71,30.08 -12.34,46.26 l 21.6,37.34 z" /></g></g><g
       id="g252"><g
         clip-path="url(#clipPath258)"
         id="g254"><path
           id="path260"
           style="fill:none;stroke:#000000;stroke-width:0.75;stroke-linecap:butt;stroke-linejoin:round;stroke-miterlimit:10;stroke-dasharray:none;stroke-opacity:1"
           d="m 633.5,381.36 -21.61,-37.34 c -11.03,-19.06 -4.52,-43.44 14.53,-54.47 l 15.26,-8.82 c 19.05,-11.03 43.43,-4.52 54.46,14.53 l 10.63,18.38 8.08,-4.67 0.3,25.14 -21.65,-12.79 8.08,-4.67 -10.64,-18.38 c -9.36,-16.18 -30.07,-21.71 -46.25,-12.34 l -15.26,8.82 c -16.18,9.37 -21.71,30.08 -12.34,46.26 l 21.6,37.34 z" /></g></g><g
       id="g262"><g
         clip-path="url(#clipPath268)"
         id="g264"><path
           id="path270"
           style="fill:#000000;fill-opacity:1;fill-rule:nonzero;stroke:none"
           d="m 624.89,337.28 4.86,7.97 1.21,-0.73 -0.68,-1.12 c 0.49,0.24 1.01,0.35 1.57,0.33 0.56,-0.01 1.11,-0.18 1.64,-0.51 0.59,-0.36 1,-0.77 1.23,-1.25 0.22,-0.48 0.28,-0.98 0.17,-1.52 1.2,0.55 2.3,0.52 3.31,-0.1 0.79,-0.48 1.27,-1.07 1.42,-1.77 0.16,-0.69 -0.04,-1.5 -0.59,-2.41 l -3.34,-5.47 -1.34,0.82 3.06,5.02 c 0.33,0.54 0.52,0.96 0.58,1.25 0.06,0.29 0.02,0.58 -0.13,0.86 -0.14,0.29 -0.36,0.52 -0.67,0.71 -0.56,0.34 -1.14,0.44 -1.74,0.29 -0.6,-0.14 -1.15,-0.63 -1.65,-1.45 l -2.82,-4.63 -1.35,0.83 3.16,5.17 c 0.36,0.6 0.53,1.12 0.49,1.56 -0.04,0.43 -0.31,0.8 -0.81,1.11 -0.38,0.23 -0.79,0.34 -1.23,0.34 -0.45,-0.01 -0.86,-0.16 -1.24,-0.45 -0.38,-0.3 -0.79,-0.81 -1.23,-1.54 l -2.52,-4.13 z m 18.04,-10.99 0.71,1.17 c -1.17,-0.52 -2.29,-0.46 -3.35,0.19 -0.47,0.29 -0.86,0.65 -1.15,1.08 -0.3,0.42 -0.47,0.84 -0.5,1.23 -0.03,0.39 0.03,0.81 0.2,1.25 0.1,0.3 0.33,0.74 0.68,1.32 l 3.01,4.93 1.35,-0.82 -2.69,-4.42 c -0.43,-0.71 -0.69,-1.2 -0.79,-1.48 -0.13,-0.4 -0.12,-0.79 0.03,-1.16 0.15,-0.37 0.43,-0.68 0.84,-0.93 0.4,-0.25 0.85,-0.37 1.33,-0.38 0.48,-0.01 0.9,0.12 1.27,0.39 0.36,0.26 0.75,0.74 1.17,1.42 l 2.6,4.27 1.35,-0.82 -4.85,-7.97 z m 6.96,-2.59 -0.53,-1.31 c -0.43,0.15 -0.79,0.32 -1.09,0.5 -0.49,0.3 -0.82,0.61 -1,0.93 -0.18,0.32 -0.24,0.64 -0.2,0.96 0.05,0.32 0.31,0.88 0.81,1.7 l 2.79,4.58 -0.99,0.6 0.64,1.06 0.99,-0.61 1.21,1.98 1.83,-0.01 -1.69,-2.79 1.36,-0.82 -0.64,-1.06 -1.36,0.83 -2.84,-4.66 c -0.24,-0.38 -0.37,-0.65 -0.39,-0.78 -0.01,-0.14 0.01,-0.28 0.08,-0.41 0.07,-0.13 0.2,-0.26 0.4,-0.38 0.15,-0.09 0.36,-0.19 0.62,-0.31 z m 6.42,-4.22 c -0.76,-0.12 -1.42,-0.12 -1.99,-0.02 -0.57,0.11 -1.12,0.32 -1.65,0.65 -0.88,0.53 -1.42,1.16 -1.63,1.87 -0.21,0.71 -0.11,1.4 0.3,2.07 0.23,0.39 0.54,0.69 0.91,0.91 0.38,0.21 0.77,0.33 1.17,0.35 0.41,0.02 0.83,-0.03 1.25,-0.15 0.3,-0.09 0.75,-0.27 1.32,-0.53 1.17,-0.54 2.07,-0.87 2.69,-1 0.12,0.18 0.2,0.29 0.23,0.34 0.33,0.56 0.44,1.02 0.32,1.4 -0.16,0.52 -0.58,0.98 -1.26,1.4 -0.63,0.38 -1.17,0.56 -1.61,0.52 -0.44,-0.04 -0.9,-0.3 -1.39,-0.77 l -1.21,0.98 c 0.46,0.5 0.94,0.83 1.43,1.01 0.48,0.18 1.04,0.21 1.68,0.08 0.63,-0.13 1.29,-0.41 1.98,-0.82 0.68,-0.42 1.18,-0.84 1.51,-1.25 0.33,-0.42 0.52,-0.82 0.57,-1.18 0.05,-0.37 0.01,-0.76 -0.14,-1.18 -0.09,-0.25 -0.32,-0.68 -0.69,-1.28 l -1.1,-1.8 c -0.76,-1.26 -1.22,-2.07 -1.36,-2.44 -0.15,-0.37 -0.23,-0.76 -0.25,-1.16 l -1.41,0.85 c 0.03,0.37 0.14,0.75 0.33,1.15 z m 1.73,3.09 c -0.61,0.1 -1.45,0.38 -2.52,0.83 -0.6,0.26 -1.05,0.41 -1.34,0.45 -0.29,0.04 -0.56,0 -0.8,-0.11 -0.24,-0.12 -0.44,-0.3 -0.58,-0.53 -0.22,-0.36 -0.27,-0.74 -0.14,-1.15 0.13,-0.41 0.45,-0.77 0.98,-1.09 0.52,-0.32 1.05,-0.49 1.59,-0.51 0.55,-0.01 1.03,0.12 1.47,0.39 0.33,0.22 0.67,0.63 1.04,1.22 z m 4.66,-6.67 -0.53,-1.32 c -0.43,0.16 -0.79,0.32 -1.09,0.51 -0.49,0.3 -0.83,0.6 -1,0.92 -0.18,0.32 -0.24,0.64 -0.2,0.96 0.04,0.32 0.31,0.89 0.81,1.7 l 2.79,4.58 -0.99,0.61 0.64,1.05 0.99,-0.6 1.21,1.97 1.83,-0.01 -1.69,-2.78 1.35,-0.83 -0.64,-1.05 -1.35,0.83 -2.85,-4.66 c -0.23,-0.39 -0.36,-0.65 -0.38,-0.79 -0.02,-0.14 0.01,-0.27 0.08,-0.41 0.06,-0.13 0.2,-0.25 0.4,-0.37 0.15,-0.1 0.36,-0.2 0.62,-0.31 z m 2.55,2.25 c 0.9,1.48 1.97,2.32 3.23,2.53 1.04,0.18 2.06,-0.04 3.04,-0.64 1.1,-0.67 1.78,-1.57 2.03,-2.71 0.26,-1.14 0,-2.35 -0.77,-3.61 -0.62,-1.03 -1.27,-1.74 -1.93,-2.14 -0.67,-0.4 -1.4,-0.59 -2.18,-0.55 -0.79,0.03 -1.53,0.26 -2.22,0.68 -1.12,0.68 -1.8,1.59 -2.06,2.72 -0.25,1.14 0.04,2.38 0.86,3.72 z m 1.39,-0.84 c -0.63,-1.02 -0.87,-1.92 -0.73,-2.7 0.13,-0.78 0.54,-1.38 1.21,-1.79 0.67,-0.41 1.39,-0.49 2.14,-0.25 0.76,0.24 1.46,0.88 2.09,1.92 0.6,0.99 0.84,1.87 0.7,2.65 -0.14,0.79 -0.54,1.38 -1.21,1.78 -0.67,0.42 -1.39,0.5 -2.14,0.27 -0.75,-0.23 -1.44,-0.86 -2.06,-1.88 z m 5.17,-8.62 4.86,7.97 1.21,-0.74 -0.73,-1.21 c 0.65,0.38 1.17,0.57 1.54,0.59 0.37,0.02 0.71,-0.06 1.03,-0.25 0.46,-0.28 0.83,-0.71 1.12,-1.28 l -1.23,-0.97 c -0.21,0.39 -0.48,0.69 -0.81,0.89 -0.29,0.18 -0.61,0.25 -0.96,0.22 -0.34,-0.03 -0.66,-0.18 -0.95,-0.43 -0.44,-0.39 -0.84,-0.87 -1.19,-1.44 l -2.54,-4.17 z m 6.05,-0.42 1.46,-0.61 c -0.25,-0.58 -0.29,-1.12 -0.12,-1.61 0.17,-0.5 0.56,-0.93 1.18,-1.3 0.62,-0.38 1.15,-0.54 1.61,-0.47 0.45,0.07 0.78,0.28 0.99,0.62 0.19,0.3 0.2,0.62 0.04,0.96 -0.11,0.23 -0.48,0.67 -1.1,1.3 -0.84,0.85 -1.39,1.49 -1.66,1.9 -0.28,0.42 -0.41,0.85 -0.41,1.29 0,0.45 0.11,0.86 0.35,1.25 0.22,0.36 0.5,0.64 0.85,0.84 0.34,0.21 0.72,0.32 1.12,0.35 0.31,0.03 0.67,-0.02 1.1,-0.13 0.43,-0.11 0.85,-0.3 1.27,-0.55 0.62,-0.38 1.12,-0.8 1.48,-1.27 0.36,-0.47 0.56,-0.93 0.6,-1.37 0.04,-0.45 -0.06,-0.95 -0.29,-1.52 l -1.43,0.62 c 0.19,0.45 0.21,0.88 0.07,1.28 -0.15,0.41 -0.49,0.77 -1.01,1.09 -0.62,0.38 -1.13,0.55 -1.52,0.5 -0.39,-0.04 -0.67,-0.2 -0.84,-0.47 -0.1,-0.18 -0.14,-0.37 -0.12,-0.58 0.02,-0.21 0.12,-0.44 0.3,-0.67 0.1,-0.14 0.43,-0.49 0.98,-1.08 0.8,-0.83 1.34,-1.45 1.62,-1.84 0.28,-0.4 0.43,-0.81 0.46,-1.25 0.02,-0.44 -0.1,-0.9 -0.38,-1.36 -0.28,-0.45 -0.67,-0.79 -1.17,-1.03 -0.51,-0.24 -1.08,-0.31 -1.7,-0.23 -0.63,0.09 -1.26,0.32 -1.88,0.7 -1.04,0.63 -1.7,1.33 -1.98,2.09 -0.28,0.76 -0.24,1.61 0.13,2.55 z" /></g></g></g></svg>