<?xml version="1.0" encoding="UTF-8" standalone="no"?>
<svg
   xmlns:dc="http://purl.org/dc/elements/1.1/"
   xmlns:cc="http://creativecommons.org/ns#"
   xmlns:rdf="http://www.w3.org/1999/02/22-rdf-syntax-ns#"
   xmlns:svg="http://www.w3.org/2000/svg"
   xmlns="http://www.w3.org/2000/svg"
   viewBox="0 0 1200 675"
   height="675"
   width="1200"
   xml:space="preserve"
   version="1.1"
   id="svg2"><metadata
     id="metadata8"><rdf:RDF><cc:Work
         rdf:about=""><dc:format>image/svg+xml</dc:format><dc:type
           rdf:resource="http://purl.org/dc/dcmitype/StillImage" /></cc:Work></rdf:RDF></metadata><defs
     id="defs6"><clipPath
       id="clipPath16"
       clipPathUnits="userSpaceOnUse"><path
         style="clip-rule:evenodd"
         id="path18"
         d="m 0,1.2207e-4 960,0 0,539.99999793 -960,0 L 0,1.2207e-4 Z" /></clipPath><clipPath
       id="clipPath26"
       clipPathUnits="userSpaceOnUse"><path
         style="clip-rule:evenodd"
         id="path28"
         d="m 0,1.8311e-4 960,0 0,539.99999689 -960,0 L 0,1.8311e-4 Z" /></clipPath><clipPath
       id="clipPath36"
       clipPathUnits="userSpaceOnUse"><path
         style="clip-rule:evenodd"
         id="path38"
         d="M 1.4305e-5,0 960.00001,0 l 0,540 -959.999995695,0 0,-540 z" /></clipPath><clipPath
       id="clipPath48"
       clipPathUnits="userSpaceOnUse"><path
         style="clip-rule:evenodd"
         id="path50"
         d="M 1.4305e-5,0 960.00001,0 l 0,540 -959.999995695,0 0,-540 z" /></clipPath><clipPath
       id="clipPath60"
       clipPathUnits="userSpaceOnUse"><path
         style="clip-rule:evenodd"
         id="path62"
         d="M -4.77e-7,0 960,0 960,540 -4.77e-7,540 l 0,-540 z" /></clipPath><clipPath
       id="clipPath70"
       clipPathUnits="userSpaceOnUse"><path
         style="clip-rule:evenodd"
         id="path72"
         d="m 0,540 960,0 0,-539.99981689 -960.000015259,0" /></clipPath><clipPath
       id="clipPath80"
       clipPathUnits="userSpaceOnUse"><path
         style="clip-rule:evenodd"
         id="path82"
         d="M 1.4305e-5,0 960.00001,0 l 0,540 -959.999995695,0 0,-540 z" /></clipPath><clipPath
       id="clipPath92"
       clipPathUnits="userSpaceOnUse"><path
         style="clip-rule:evenodd"
         id="path94"
         d="M 1.4305e-5,0 960.00001,0 l 0,540 -959.999995695,0 0,-540 z" /></clipPath><clipPath
       id="clipPath104"
       clipPathUnits="userSpaceOnUse"><path
         style="clip-rule:evenodd"
         id="path106"
         d="M 1.4305e-5,0 960.00001,0 l 0,540 -959.999995695,0 0,-540 z" /></clipPath><clipPath
       id="clipPath116"
       clipPathUnits="userSpaceOnUse"><path
         style="clip-rule:evenodd"
         id="path118"
         d="M 1.4305e-5,0 960.00001,0 l 0,540 -959.999995695,0 0,-540 z" /></clipPath><clipPath
       id="clipPath128"
       clipPathUnits="userSpaceOnUse"><path
         style="clip-rule:evenodd"
         id="path130"
         d="M 1.4305e-5,0 960.00001,0 l 0,540 -959.999995695,0 0,-540 z" /></clipPath><clipPath
       id="clipPath140"
       clipPathUnits="userSpaceOnUse"><path
         style="clip-rule:evenodd"
         id="path142"
         d="M 1.4305e-5,0 960.00001,0 l 0,540 -959.999995695,0 0,-540 z" /></clipPath><clipPath
       id="clipPath152"
       clipPathUnits="userSpaceOnUse"><path
         style="clip-rule:evenodd"
         id="path154"
         d="M -6.1035e-5,540 960,540 960,0 -1.2207e-4,0" /></clipPath></defs><g
     transform="matrix(1.25,0,0,-1.25,0,675)"
     id="g10"><g
       id="g12"><g
         clip-path="url(#clipPath16)"
         id="g14"><path
           id="path20"
           style="fill:#ffffff;fill-opacity:1;fill-rule:evenodd;stroke:none"
           d="m 0,6.1035e-5 960,0 0,539.999998965 -960,0 L 0,6.1035e-5 Z" /></g></g><g
       id="g22"><g
         clip-path="url(#clipPath26)"
         id="g24"><path
           id="path30"
           style="fill:#e7e6e6;fill-opacity:1;fill-rule:evenodd;stroke:none"
           d="M 6.72,0 960,0 960,319.56 6.72,319.56 6.72,0 Z" /></g></g><g
       id="g32"><g
         clip-path="url(#clipPath36)"
         id="g34"><text
           id="text40"
           style="font-variant:normal;font-weight:normal;font-size:39.95999908px;font-family:Helvetica;-inkscape-font-specification:Helvetica;writing-mode:lr-tb;fill:#000000;fill-opacity:1;fill-rule:nonzero;stroke:none"
           transform="matrix(1,0,0,-1,7.2,497.23)"><tspan
             id="tspan42"
             y="0"
             x="0 19.98 28.85112 37.72224 59.939999 82.157761">client</tspan></text>
</g></g><g
       id="g44"><g
         clip-path="url(#clipPath48)"
         id="g46"><text
           id="text52"
           style="font-variant:normal;font-weight:normal;font-size:39.95999908px;font-family:Helvetica;-inkscape-font-specification:Helvetica;writing-mode:lr-tb;fill:#000000;fill-opacity:1;fill-rule:nonzero;stroke:none"
           transform="matrix(1,0,0,-1,21.504,142.97)"><tspan
             id="tspan54"
             y="0"
             x="0 8.8711205 42.157799 64.375557 73.246681 95.464439 128.75111 150.96889 173.18665 184.29552 206.51328">implementer</tspan></text>
</g></g><g
       id="g56"><g
         clip-path="url(#clipPath60)"
         id="g58"><path
           id="path64"
           style="fill:none;stroke:#ff0000;stroke-width:3;stroke-linecap:butt;stroke-linejoin:miter;stroke-miterlimit:10;stroke-dasharray:none;stroke-opacity:1"
           d="m 6.78,319.48 953.23,2.06" /></g></g><g
       id="g66"><g
         clip-path="url(#clipPath70)"
         id="g68"><path
           id="path74"
           style="fill:none;stroke:#4472c4;stroke-width:2.25;stroke-linecap:butt;stroke-linejoin:miter;stroke-miterlimit:10;stroke-dasharray:none;stroke-opacity:1"
           d="m 172.08,451.39 166.31,-286.18 19.62,11.4 -11.47,-43.29 -43.29,11.47 19.62,11.4 -166.31,286.18 15.52,9.02 z" /></g></g><g
       id="g76"><g
         clip-path="url(#clipPath80)"
         id="g78"><text
           id="text84"
           style="font-style:italic;font-variant:normal;font-weight:normal;font-size:32.04000092px;font-family:Helvetica;-inkscape-font-specification:'Helvetica Italic';writing-mode:lr-tb;fill:#ff0000;fill-opacity:1;fill-rule:nonzero;stroke:none"
           transform="matrix(1,0,0,-1,384.58,332.04)"><tspan
             id="tspan86"
             y="0"
             x="0 16.02 33.83424 51.648479 67.66848 74.781357 83.688477 90.801361 106.82136 124.6356 133.44659 140.55948 158.37372 176.0598">specification </tspan></text>
</g></g><g
       id="g88"><g
         clip-path="url(#clipPath92)"
         id="g90"><text
           id="text96"
           style="font-style:italic;font-variant:normal;font-weight:normal;font-size:32.06399918px;font-family:Helvetica;-inkscape-font-specification:'Helvetica Italic';writing-mode:lr-tb;fill:#ff0000;fill-opacity:1;fill-rule:nonzero;stroke:none"
           transform="matrix(1,0,0,-1,372.22,293.64)"><tspan
             id="tspan98"
             y="0"
             x="0 17.827583 33.859585 42.773376 58.805374 67.430595 85.258179 101.29018">acts as </tspan></text>
</g></g><g
       id="g100"><g
         clip-path="url(#clipPath104)"
         id="g102"><text
           id="text108"
           style="font-style:italic;font-variant:normal;font-weight:normal;font-size:32.06399918px;font-family:Helvetica;-inkscape-font-specification:'Helvetica Italic';writing-mode:lr-tb;fill:#ff0000;fill-opacity:1;fill-rule:nonzero;stroke:none"
           transform="matrix(1,0,0,-1,482.4,293.64)"><tspan
             id="tspan110"
             y="0"
             x="0 8.9137917 16.032 26.709312 44.408642 67.558846 85.386429 92.504639">firewall</tspan></text>
</g></g><g
       id="g112"><g
         clip-path="url(#clipPath116)"
         id="g114"><text
           id="text120"
           style="font-variant:normal;font-weight:normal;font-size:36px;font-family:Helvetica;-inkscape-font-specification:Helvetica;writing-mode:lr-tb;fill:#000000;fill-opacity:1;fill-rule:nonzero;stroke:none"
           transform="matrix(1,0,0,-1,203.81,466.39)"><tspan
             id="tspan122"
             y="0"
             x="0 7.9920001 28.007999 48.023998 68.112">input</tspan></text>
</g></g><g
       id="g124"><g
         clip-path="url(#clipPath128)"
         id="g126"><text
           id="text132"
           style="font-variant:normal;font-weight:normal;font-size:36px;font-family:Helvetica;-inkscape-font-specification:Helvetica;writing-mode:lr-tb;fill:#000000;fill-opacity:1;fill-rule:nonzero;stroke:none"
           transform="matrix(1,0,0,-1,674.88,466.39)"><tspan
             id="tspan134"
             y="0"
             x="0 20.016001 40.032001 50.040001 70.056 90.071999">output</tspan></text>
</g></g><g
       id="g136"><g
         clip-path="url(#clipPath140)"
         id="g138"><text
           id="text144"
           style="font-variant:normal;font-weight:normal;font-size:39.98400116px;font-family:Helvetica;-inkscape-font-specification:Helvetica;writing-mode:lr-tb;fill:#000000;fill-opacity:1;fill-rule:nonzero;stroke:none"
           transform="matrix(1,0,0,-1,374.88,177.41)"><tspan
             id="tspan146"
             y="0"
             x="0 19.992001 42.223103 75.529778 97.76088 119.99198 131.10753 153.33864 164.45419 173.33064 195.56174">computation</tspan></text>
</g></g><g
       id="g148"><g
         clip-path="url(#clipPath152)"
         id="g150"><path
           id="path156"
           style="fill:none;stroke:#4472c4;stroke-width:2.25;stroke-linecap:butt;stroke-linejoin:miter;stroke-miterlimit:10;stroke-dasharray:none;stroke-opacity:1"
           d="m 614.31,139.26 168.79,284.72 -19.52,11.57 43.39,11.09 11.09,-43.38 -19.52,11.57 -168.79,-284.73 -15.44,9.16 z" /></g></g><path
       id="path158"
       style="fill:none;stroke:#4472c4;stroke-width:2.27999997;stroke-linecap:butt;stroke-linejoin:miter;stroke-miterlimit:10;stroke-dasharray:none;stroke-opacity:1"
       d="m 357.9,143.12 221.7,0 0,22.66 31.62,-31.62 -31.62,-31.62 0,22.66 -221.7,0 0,17.92 z" /></g></svg>